<?xml version="1.0" encoding="UTF-8" standalone="no"?><svg xmlns="http://www.w3.org/2000/svg" xmlns:xlink="http://www.w3.org/1999/xlink" contentStyleType="text/css" height="989px" preserveAspectRatio="none" style="width:7049px;height:989px;background:#FFFFFF;" version="1.1" viewBox="0 0 7049 989" width="7049px" zoomAndPan="magnify"><defs/><g><g id="elem_Program"><rect codeLine="1" fill="#F1F1F1" height="65.6094" id="Program" rx="2.5" ry="2.5" style="stroke:#181818;stroke-width:0.5;" width="179" x="5086.21" y="7"/><ellipse cx="5144.46" cy="23" fill="#ADD1B2" rx="11" ry="11" style="stroke:#181818;stroke-width:1.0;"/><path d="M5147.2256,18.875 Q5147.3819,18.6563 5147.5694,18.5469 Q5147.7569,18.4375 5147.9756,18.4375 Q5148.3506,18.4375 5148.585,18.7031 Q5148.8194,18.9531 5148.8194,19.5625 L5148.8194,21.0156 Q5148.8194,21.625 5148.585,21.8906 Q5148.3506,22.1563 5147.9756,22.1563 Q5147.6319,22.1563 5147.4288,21.9531 Q5147.2256,21.7656 5147.1163,21.25 Q5147.0694,20.8906 5146.8819,20.7031 Q5146.5538,20.3281 5145.9444,20.1094 Q5145.335,19.8906 5144.71,19.8906 Q5143.9444,19.8906 5143.3038,20.2188 Q5142.6788,20.5469 5142.1788,21.2969 Q5141.6944,22.0469 5141.6944,23.0781 L5141.6944,24.1719 Q5141.6944,25.4063 5142.585,26.2344 Q5143.4756,27.0469 5145.0694,27.0469 Q5146.0069,27.0469 5146.6631,26.7969 Q5147.0538,26.6406 5147.4756,26.2031 Q5147.7413,25.9375 5147.8819,25.8594 Q5148.0381,25.7813 5148.2413,25.7813 Q5148.5694,25.7813 5148.8194,26.0469 Q5149.085,26.2969 5149.085,26.6406 Q5149.085,26.9844 5148.7413,27.3906 Q5148.2413,27.9688 5147.4444,28.2969 Q5146.3663,28.75 5145.0694,28.75 Q5143.5538,28.75 5142.3506,28.125 Q5141.3663,27.625 5140.6788,26.5625 Q5139.9913,25.4844 5139.9913,24.2031 L5139.9913,23.0469 Q5139.9913,21.7188 5140.6006,20.5781 Q5141.2256,19.4219 5142.3194,18.8125 Q5143.4131,18.1875 5144.6475,18.1875 Q5145.3819,18.1875 5146.0225,18.3594 Q5146.6788,18.5156 5147.2256,18.875 Z " fill="#000000"/><text fill="#000000" font-family="sans-serif" font-size="14" lengthAdjust="spacing" textLength="54" x="5164.96" y="28.7285">Program</text><line style="stroke:#181818;stroke-width:0.5;" x1="5087.21" x2="5264.21" y1="39" y2="39"/><line style="stroke:#181818;stroke-width:0.5;" x1="5087.21" x2="5264.21" y1="47" y2="47"/><ellipse cx="5097.21" cy="61.3047" fill="#84BE84" rx="3" ry="3" style="stroke:#038048;stroke-width:1.0;"/><text fill="#000000" font-family="sans-serif" font-size="14" lengthAdjust="spacing" text-decoration="underline" textLength="153" x="5106.21" y="65.5332">Main(args:string[]) : void</text></g><g id="elem_Credentials"><rect codeLine="1" fill="#F1F1F1" height="100.8281" id="Credentials" rx="2.5" ry="2.5" style="stroke:#181818;stroke-width:0.5;" width="213" x="4659.21" y="738"/><ellipse cx="4725.46" cy="754" fill="#ADD1B2" rx="11" ry="11" style="stroke:#181818;stroke-width:1.0;"/><path d="M4728.2256,749.875 Q4728.3819,749.6563 4728.5694,749.5469 Q4728.7569,749.4375 4728.9756,749.4375 Q4729.3506,749.4375 4729.585,749.7031 Q4729.8194,749.9531 4729.8194,750.5625 L4729.8194,752.0156 Q4729.8194,752.625 4729.585,752.8906 Q4729.3506,753.1563 4728.9756,753.1563 Q4728.6319,753.1563 4728.4288,752.9531 Q4728.2256,752.7656 4728.1163,752.25 Q4728.0694,751.8906 4727.8819,751.7031 Q4727.5538,751.3281 4726.9444,751.1094 Q4726.335,750.8906 4725.71,750.8906 Q4724.9444,750.8906 4724.3038,751.2188 Q4723.6788,751.5469 4723.1788,752.2969 Q4722.6944,753.0469 4722.6944,754.0781 L4722.6944,755.1719 Q4722.6944,756.4063 4723.585,757.2344 Q4724.4756,758.0469 4726.0694,758.0469 Q4727.0069,758.0469 4727.6631,757.7969 Q4728.0538,757.6406 4728.4756,757.2031 Q4728.7413,756.9375 4728.8819,756.8594 Q4729.0381,756.7813 4729.2413,756.7813 Q4729.5694,756.7813 4729.8194,757.0469 Q4730.085,757.2969 4730.085,757.6406 Q4730.085,757.9844 4729.7413,758.3906 Q4729.2413,758.9688 4728.4444,759.2969 Q4727.3663,759.75 4726.0694,759.75 Q4724.5538,759.75 4723.3506,759.125 Q4722.3663,758.625 4721.6788,757.5625 Q4720.9913,756.4844 4720.9913,755.2031 L4720.9913,754.0469 Q4720.9913,752.7188 4721.6006,751.5781 Q4722.2256,750.4219 4723.3194,749.8125 Q4724.4131,749.1875 4725.6475,749.1875 Q4726.3819,749.1875 4727.0225,749.3594 Q4727.6788,749.5156 4728.2256,749.875 Z " fill="#000000"/><text fill="#000000" font-family="sans-serif" font-size="14" lengthAdjust="spacing" textLength="72" x="4745.96" y="759.7285">Credentials</text><line style="stroke:#181818;stroke-width:0.5;" x1="4660.21" x2="4871.21" y1="770" y2="770"/><ellipse cx="4670.21" cy="784.3047" fill="none" rx="3" ry="3" style="stroke:#038048;stroke-width:1.0;"/><text fill="#000000" font-family="sans-serif" font-size="14" lengthAdjust="spacing" textLength="161" x="4679.21" y="788.5332">Login : string «get» «set»</text><ellipse cx="4670.21" cy="801.9141" fill="none" rx="3" ry="3" style="stroke:#038048;stroke-width:1.0;"/><text fill="#000000" font-family="sans-serif" font-size="14" lengthAdjust="spacing" textLength="187" x="4679.21" y="806.1426">Password : string «get» «set»</text><ellipse cx="4670.21" cy="819.5234" fill="none" rx="3" ry="3" style="stroke:#038048;stroke-width:1.0;"/><text fill="#000000" font-family="sans-serif" font-size="14" lengthAdjust="spacing" textLength="149" x="4679.21" y="823.752">Role : Role «get» «set»</text><line style="stroke:#181818;stroke-width:0.5;" x1="4660.21" x2="4871.21" y1="830.8281" y2="830.8281"/></g><g id="elem_MyContext"><rect codeLine="1" fill="#F1F1F1" height="65.6094" id="MyContext" rx="2.5" ry="2.5" style="stroke:#181818;stroke-width:0.5;" width="274" x="3046.71" y="586"/><ellipse cx="3146.46" cy="602" fill="#ADD1B2" rx="11" ry="11" style="stroke:#181818;stroke-width:1.0;"/><path d="M3149.2256,597.875 Q3149.3819,597.6563 3149.5694,597.5469 Q3149.7569,597.4375 3149.9756,597.4375 Q3150.3506,597.4375 3150.585,597.7031 Q3150.8194,597.9531 3150.8194,598.5625 L3150.8194,600.0156 Q3150.8194,600.625 3150.585,600.8906 Q3150.3506,601.1563 3149.9756,601.1563 Q3149.6319,601.1563 3149.4288,600.9531 Q3149.2256,600.7656 3149.1163,600.25 Q3149.0694,599.8906 3148.8819,599.7031 Q3148.5538,599.3281 3147.9444,599.1094 Q3147.335,598.8906 3146.71,598.8906 Q3145.9444,598.8906 3145.3038,599.2188 Q3144.6788,599.5469 3144.1788,600.2969 Q3143.6944,601.0469 3143.6944,602.0781 L3143.6944,603.1719 Q3143.6944,604.4063 3144.585,605.2344 Q3145.4756,606.0469 3147.0694,606.0469 Q3148.0069,606.0469 3148.6631,605.7969 Q3149.0538,605.6406 3149.4756,605.2031 Q3149.7413,604.9375 3149.8819,604.8594 Q3150.0381,604.7813 3150.2413,604.7813 Q3150.5694,604.7813 3150.8194,605.0469 Q3151.085,605.2969 3151.085,605.6406 Q3151.085,605.9844 3150.7413,606.3906 Q3150.2413,606.9688 3149.4444,607.2969 Q3148.3663,607.75 3147.0694,607.75 Q3145.5538,607.75 3144.3506,607.125 Q3143.3663,606.625 3142.6788,605.5625 Q3141.9913,604.4844 3141.9913,603.2031 L3141.9913,602.0469 Q3141.9913,600.7188 3142.6006,599.5781 Q3143.2256,598.4219 3144.3194,597.8125 Q3145.4131,597.1875 3146.6475,597.1875 Q3147.3819,597.1875 3148.0225,597.3594 Q3148.6788,597.5156 3149.2256,597.875 Z " fill="#000000"/><text fill="#000000" font-family="sans-serif" font-size="14" lengthAdjust="spacing" textLength="66" x="3166.96" y="607.7285">MyContext</text><line style="stroke:#181818;stroke-width:0.5;" x1="3047.71" x2="3319.71" y1="618" y2="618"/><ellipse cx="3057.71" cy="632.3047" fill="none" rx="3" ry="3" style="stroke:#038048;stroke-width:1.0;"/><text fill="#000000" font-family="sans-serif" font-size="14" lengthAdjust="spacing" textLength="248" x="3066.71" y="636.5332">CurrentUser : Credentials? «get» «set»</text><line style="stroke:#181818;stroke-width:0.5;" x1="3047.71" x2="3319.71" y1="643.6094" y2="643.6094"/></g><g id="elem_GroupModel"><rect codeLine="1" fill="#F1F1F1" height="136.0469" id="GroupModel" rx="2.5" ry="2.5" style="stroke:#181818;stroke-width:0.5;" width="298" x="6525.71" y="133"/><ellipse cx="6631.46" cy="149" fill="#ADD1B2" rx="11" ry="11" style="stroke:#181818;stroke-width:1.0;"/><path d="M6634.2256,144.875 Q6634.3819,144.6563 6634.5694,144.5469 Q6634.7569,144.4375 6634.9756,144.4375 Q6635.3506,144.4375 6635.585,144.7031 Q6635.8194,144.9531 6635.8194,145.5625 L6635.8194,147.0156 Q6635.8194,147.625 6635.585,147.8906 Q6635.3506,148.1563 6634.9756,148.1563 Q6634.6319,148.1563 6634.4288,147.9531 Q6634.2256,147.7656 6634.1163,147.25 Q6634.0694,146.8906 6633.8819,146.7031 Q6633.5538,146.3281 6632.9444,146.1094 Q6632.335,145.8906 6631.71,145.8906 Q6630.9444,145.8906 6630.3038,146.2188 Q6629.6788,146.5469 6629.1788,147.2969 Q6628.6944,148.0469 6628.6944,149.0781 L6628.6944,150.1719 Q6628.6944,151.4063 6629.585,152.2344 Q6630.4756,153.0469 6632.0694,153.0469 Q6633.0069,153.0469 6633.6631,152.7969 Q6634.0538,152.6406 6634.4756,152.2031 Q6634.7413,151.9375 6634.8819,151.8594 Q6635.0381,151.7813 6635.2413,151.7813 Q6635.5694,151.7813 6635.8194,152.0469 Q6636.085,152.2969 6636.085,152.6406 Q6636.085,152.9844 6635.7413,153.3906 Q6635.2413,153.9688 6634.4444,154.2969 Q6633.3663,154.75 6632.0694,154.75 Q6630.5538,154.75 6629.3506,154.125 Q6628.3663,153.625 6627.6788,152.5625 Q6626.9913,151.4844 6626.9913,150.2031 L6626.9913,149.0469 Q6626.9913,147.7188 6627.6006,146.5781 Q6628.2256,145.4219 6629.3194,144.8125 Q6630.4131,144.1875 6631.6475,144.1875 Q6632.3819,144.1875 6633.0225,144.3594 Q6633.6788,144.5156 6634.2256,144.875 Z " fill="#000000"/><text fill="#000000" font-family="sans-serif" font-size="14" lengthAdjust="spacing" textLength="78" x="6651.96" y="154.7285">GroupModel</text><line style="stroke:#181818;stroke-width:0.5;" x1="6526.71" x2="6822.71" y1="165" y2="165"/><ellipse cx="6536.71" cy="179.3047" fill="none" rx="3" ry="3" style="stroke:#038048;stroke-width:1.0;"/><text fill="#000000" font-family="sans-serif" font-size="14" lengthAdjust="spacing" textLength="162" x="6545.71" y="183.5332">Name : string «get» «set»</text><ellipse cx="6536.71" cy="196.9141" fill="none" rx="3" ry="3" style="stroke:#038048;stroke-width:1.0;"/><text fill="#000000" font-family="sans-serif" font-size="14" lengthAdjust="spacing" textLength="187" x="6545.71" y="201.1426">YearCreated : int «get» «set»</text><ellipse cx="6536.71" cy="214.5234" fill="none" rx="3" ry="3" style="stroke:#038048;stroke-width:1.0;"/><text fill="#000000" font-family="sans-serif" font-size="14" lengthAdjust="spacing" textLength="272" x="6545.71" y="218.752">Students : List&lt;StudentModel&gt; «get» «set»</text><line style="stroke:#181818;stroke-width:0.5;" x1="6526.71" x2="6822.71" y1="225.8281" y2="225.8281"/><ellipse cx="6536.71" cy="240.1328" fill="#84BE84" rx="3" ry="3" style="stroke:#038048;stroke-width:1.0;"/><text fill="#000000" font-family="sans-serif" font-size="14" lengthAdjust="spacing" textLength="268" x="6545.71" y="244.3613">GroupModel(name:string, yearCreated:int)</text><ellipse cx="6536.71" cy="257.7422" fill="#84BE84" rx="3" ry="3" style="stroke:#038048;stroke-width:1.0;"/><text fill="#000000" font-family="sans-serif" font-size="14" lengthAdjust="spacing" textLength="191" x="6545.71" y="261.9707">«override» ToString() : string?</text></g><g id="elem_BaseCommand"><rect codeLine="1" fill="#F1F1F1" height="136.0469" id="BaseCommand" rx="2.5" ry="2.5" style="stroke:#181818;stroke-width:0.5;" width="238" x="3632.71" y="133"/><ellipse cx="3699.46" cy="149" fill="#A9DCDF" rx="11" ry="11" style="stroke:#181818;stroke-width:1.0;"/><path d="M3701.6475,150.7656 L3697.5069,150.7656 L3697.085,151.7969 L3697.5069,151.7969 Q3698.1163,151.7969 3698.3819,152.0313 Q3698.6475,152.2656 3698.6475,152.6563 Q3698.6475,153.0313 3698.3819,153.2656 Q3698.1163,153.5 3697.5069,153.5 L3695.21,153.5 Q3694.6006,153.5 3694.3506,153.2656 Q3694.085,153.0313 3694.085,152.6406 Q3694.085,152.2656 3694.3663,152.0313 Q3694.6319,151.7813 3695.2569,151.7969 L3697.9288,145.1406 L3696.8194,145.1406 Q3696.21,145.1406 3695.9444,144.9063 Q3695.6788,144.6719 3695.6788,144.2813 Q3695.6788,143.9063 3695.9444,143.6719 Q3696.21,143.4375 3696.8194,143.4375 L3700.4913,143.4375 L3703.8819,151.7969 Q3704.4756,151.7969 3704.6631,151.9375 Q3705.0538,152.2031 3705.0538,152.6563 Q3705.0538,153.0313 3704.7881,153.2656 Q3704.5381,153.5 3703.9288,153.5 L3701.6319,153.5 Q3701.0225,153.5 3700.7569,153.2656 Q3700.4913,153.0313 3700.4913,152.6406 Q3700.4913,152.2656 3700.7569,152.0313 Q3701.0225,151.7969 3701.6319,151.7969 L3702.0538,151.7969 L3701.6475,150.7656 Z M3700.9288,149.0625 L3699.5694,145.6875 L3698.1944,149.0625 L3700.9288,149.0625 Z " fill="#000000"/><text fill="#000000" font-family="sans-serif" font-size="14" font-style="italic" lengthAdjust="spacing" textLength="96" x="3719.96" y="154.7285">BaseCommand</text><line style="stroke:#181818;stroke-width:0.5;" x1="3633.71" x2="3869.71" y1="165" y2="165"/><ellipse cx="3643.71" cy="179.3047" fill="none" rx="3" ry="3" style="stroke:#038048;stroke-width:1.0;"/><text fill="#000000" font-family="sans-serif" font-size="14" lengthAdjust="spacing" textLength="181" x="3652.71" y="183.5332">«virtual» Name : string «get»</text><ellipse cx="3643.71" cy="196.9141" fill="none" rx="3" ry="3" style="stroke:#038048;stroke-width:1.0;"/><text fill="#000000" font-family="sans-serif" font-size="14" font-style="italic" lengthAdjust="spacing" textLength="158" x="3652.71" y="201.1426">Description : string «get»</text><ellipse cx="3643.71" cy="214.5234" fill="none" rx="3" ry="3" style="stroke:#038048;stroke-width:1.0;"/><text fill="#000000" font-family="sans-serif" font-size="14" font-style="italic" lengthAdjust="spacing" textLength="212" x="3652.71" y="218.752">Argument : List&lt;Argument&gt; «get»</text><line style="stroke:#181818;stroke-width:0.5;" x1="3633.71" x2="3869.71" y1="225.8281" y2="225.8281"/><ellipse cx="3643.71" cy="240.1328" fill="#84BE84" rx="3" ry="3" style="stroke:#038048;stroke-width:1.0;"/><text fill="#000000" font-family="sans-serif" font-size="14" font-style="italic" lengthAdjust="spacing" textLength="202" x="3652.71" y="244.3613">Execute(args:List&lt;string&gt;) : void</text><ellipse cx="3643.71" cy="257.7422" fill="#84BE84" rx="3" ry="3" style="stroke:#038048;stroke-width:1.0;"/><text fill="#000000" font-family="sans-serif" font-size="14" lengthAdjust="spacing" textLength="191" x="3652.71" y="261.9707">«override» ToString() : string?</text></g><g id="elem_Role"><rect codeLine="1" fill="#F1F1F1" height="83.2188" id="Role" rx="2.5" ry="2.5" style="stroke:#181818;stroke-width:0.5;" width="65" x="4864.21" y="899"/><ellipse cx="4881.01" cy="915" fill="#EB937F" rx="11" ry="11" style="stroke:#181818;stroke-width:1.0;"/><path d="M4879.8694,915.7969 L4879.8694,918.2969 L4884.1975,918.2969 L4884.1975,917.375 Q4884.1975,916.7656 4884.4319,916.5 Q4884.6819,916.2344 4885.0569,916.2344 Q4885.4319,916.2344 4885.6663,916.5 Q4885.9006,916.7656 4885.9006,917.375 L4885.9006,920 L4877.9006,920 Q4877.2756,920 4877.01,919.7656 Q4876.76,919.5313 4876.76,919.1406 Q4876.76,918.7656 4877.0256,918.5313 Q4877.2913,918.2969 4877.9006,918.2969 L4878.1663,918.2969 L4878.1663,911.6406 L4877.9006,911.6406 Q4877.2756,911.6406 4877.01,911.4063 Q4876.76,911.1719 4876.76,910.7813 Q4876.76,910.4063 4877.01,910.1719 Q4877.2756,909.9375 4877.9006,909.9375 L4885.5256,909.9375 L4885.5256,912.5313 Q4885.5256,913.1406 4885.2913,913.4063 Q4885.0725,913.6563 4884.6819,913.6563 Q4884.3069,913.6563 4884.0725,913.4063 Q4883.8381,913.1406 4883.8381,912.5313 L4883.8381,911.6406 L4879.8694,911.6406 L4879.8694,914.0938 L4881.3538,914.0938 Q4881.3538,913.4375 4881.4788,913.25 Q4881.7444,912.8438 4882.2131,912.8438 Q4882.5881,912.8438 4882.8225,913.1094 Q4883.0569,913.3594 4883.0569,913.9688 L4883.0569,915.9375 Q4883.0569,916.4844 4882.9319,916.6719 Q4882.6663,917.0625 4882.2131,917.0625 Q4881.7444,917.0625 4881.4788,916.6563 Q4881.3538,916.4688 4881.3538,915.7969 L4879.8694,915.7969 Z " fill="#000000"/><text fill="#000000" font-family="sans-serif" font-size="14" lengthAdjust="spacing" textLength="29" x="4895.41" y="920.7285">Role</text><line style="stroke:#181818;stroke-width:0.5;" x1="4865.21" x2="4928.21" y1="931" y2="931"/><text fill="#000000" font-family="sans-serif" font-size="14" lengthAdjust="spacing" textLength="53" x="4870.21" y="949.5332">Student,</text><text fill="#000000" font-family="sans-serif" font-size="14" lengthAdjust="spacing" textLength="37" x="4870.21" y="967.1426">Clerk,</text><line style="stroke:#181818;stroke-width:0.5;" x1="4865.21" x2="4928.21" y1="974.2188" y2="974.2188"/></g><g id="elem_PermittedActivities"><rect codeLine="1" fill="#F1F1F1" height="65.6094" id="PermittedActivities" rx="2.5" ry="2.5" style="stroke:#181818;stroke-width:0.5;" width="243" x="4907.21" y="755.5"/><ellipse cx="4966.96" cy="771.5" fill="#ADD1B2" rx="11" ry="11" style="stroke:#181818;stroke-width:1.0;"/><path d="M4969.7256,767.375 Q4969.8819,767.1563 4970.0694,767.0469 Q4970.2569,766.9375 4970.4756,766.9375 Q4970.8506,766.9375 4971.085,767.2031 Q4971.3194,767.4531 4971.3194,768.0625 L4971.3194,769.5156 Q4971.3194,770.125 4971.085,770.3906 Q4970.8506,770.6563 4970.4756,770.6563 Q4970.1319,770.6563 4969.9288,770.4531 Q4969.7256,770.2656 4969.6163,769.75 Q4969.5694,769.3906 4969.3819,769.2031 Q4969.0538,768.8281 4968.4444,768.6094 Q4967.835,768.3906 4967.21,768.3906 Q4966.4444,768.3906 4965.8038,768.7188 Q4965.1788,769.0469 4964.6788,769.7969 Q4964.1944,770.5469 4964.1944,771.5781 L4964.1944,772.6719 Q4964.1944,773.9063 4965.085,774.7344 Q4965.9756,775.5469 4967.5694,775.5469 Q4968.5069,775.5469 4969.1631,775.2969 Q4969.5538,775.1406 4969.9756,774.7031 Q4970.2413,774.4375 4970.3819,774.3594 Q4970.5381,774.2813 4970.7413,774.2813 Q4971.0694,774.2813 4971.3194,774.5469 Q4971.585,774.7969 4971.585,775.1406 Q4971.585,775.4844 4971.2413,775.8906 Q4970.7413,776.4688 4969.9444,776.7969 Q4968.8663,777.25 4967.5694,777.25 Q4966.0538,777.25 4964.8506,776.625 Q4963.8663,776.125 4963.1788,775.0625 Q4962.4913,773.9844 4962.4913,772.7031 L4962.4913,771.5469 Q4962.4913,770.2188 4963.1006,769.0781 Q4963.7256,767.9219 4964.8194,767.3125 Q4965.9131,766.6875 4967.1475,766.6875 Q4967.8819,766.6875 4968.5225,766.8594 Q4969.1788,767.0156 4969.7256,767.375 Z " fill="#000000"/><text fill="#000000" font-family="sans-serif" font-size="14" lengthAdjust="spacing" textLength="115" x="4987.46" y="777.2285">PermittedActivities</text><line style="stroke:#181818;stroke-width:0.5;" x1="4908.21" x2="5149.21" y1="787.5" y2="787.5"/><line style="stroke:#181818;stroke-width:0.5;" x1="4908.21" x2="5149.21" y1="795.5" y2="795.5"/><ellipse cx="4918.21" cy="809.8047" fill="#84BE84" rx="3" ry="3" style="stroke:#038048;stroke-width:1.0;"/><text fill="#000000" font-family="sans-serif" font-size="14" lengthAdjust="spacing" text-decoration="underline" textLength="217" x="4927.21" y="814.0332">Get(role:Role) : PermittedActivities</text></g><g id="elem_StudentModel"><rect codeLine="1" fill="#F1F1F1" height="171.2656" id="StudentModel" rx="2.5" ry="2.5" style="stroke:#181818;stroke-width:0.5;" width="590" x="6452.71" y="329"/><ellipse cx="6699.96" cy="345" fill="#ADD1B2" rx="11" ry="11" style="stroke:#181818;stroke-width:1.0;"/><path d="M6702.7256,340.875 Q6702.8819,340.6563 6703.0694,340.5469 Q6703.2569,340.4375 6703.4756,340.4375 Q6703.8506,340.4375 6704.085,340.7031 Q6704.3194,340.9531 6704.3194,341.5625 L6704.3194,343.0156 Q6704.3194,343.625 6704.085,343.8906 Q6703.8506,344.1563 6703.4756,344.1563 Q6703.1319,344.1563 6702.9288,343.9531 Q6702.7256,343.7656 6702.6163,343.25 Q6702.5694,342.8906 6702.3819,342.7031 Q6702.0538,342.3281 6701.4444,342.1094 Q6700.835,341.8906 6700.21,341.8906 Q6699.4444,341.8906 6698.8038,342.2188 Q6698.1788,342.5469 6697.6788,343.2969 Q6697.1944,344.0469 6697.1944,345.0781 L6697.1944,346.1719 Q6697.1944,347.4063 6698.085,348.2344 Q6698.9756,349.0469 6700.5694,349.0469 Q6701.5069,349.0469 6702.1631,348.7969 Q6702.5538,348.6406 6702.9756,348.2031 Q6703.2413,347.9375 6703.3819,347.8594 Q6703.5381,347.7813 6703.7413,347.7813 Q6704.0694,347.7813 6704.3194,348.0469 Q6704.585,348.2969 6704.585,348.6406 Q6704.585,348.9844 6704.2413,349.3906 Q6703.7413,349.9688 6702.9444,350.2969 Q6701.8663,350.75 6700.5694,350.75 Q6699.0538,350.75 6697.8506,350.125 Q6696.8663,349.625 6696.1788,348.5625 Q6695.4913,347.4844 6695.4913,346.2031 L6695.4913,345.0469 Q6695.4913,343.7188 6696.1006,342.5781 Q6696.7256,341.4219 6697.8194,340.8125 Q6698.9131,340.1875 6700.1475,340.1875 Q6700.8819,340.1875 6701.5225,340.3594 Q6702.1788,340.5156 6702.7256,340.875 Z " fill="#000000"/><text fill="#000000" font-family="sans-serif" font-size="14" lengthAdjust="spacing" textLength="87" x="6720.46" y="350.7285">StudentModel</text><line style="stroke:#181818;stroke-width:0.5;" x1="6453.71" x2="7041.71" y1="361" y2="361"/><ellipse cx="6463.71" cy="375.3047" fill="none" rx="3" ry="3" style="stroke:#038048;stroke-width:1.0;"/><text fill="#000000" font-family="sans-serif" font-size="14" lengthAdjust="spacing" textLength="78" x="6472.71" y="379.5332">Id : int «get»</text><ellipse cx="6463.71" cy="392.9141" fill="none" rx="3" ry="3" style="stroke:#038048;stroke-width:1.0;"/><text fill="#000000" font-family="sans-serif" font-size="14" lengthAdjust="spacing" textLength="190" x="6472.71" y="397.1426">FirstName : string «get» «set»</text><ellipse cx="6463.71" cy="410.5234" fill="none" rx="3" ry="3" style="stroke:#038048;stroke-width:1.0;"/><text fill="#000000" font-family="sans-serif" font-size="14" lengthAdjust="spacing" textLength="210" x="6472.71" y="414.752">SecondName : string «get» «set»</text><ellipse cx="6463.71" cy="428.1328" fill="none" rx="3" ry="3" style="stroke:#038048;stroke-width:1.0;"/><text fill="#000000" font-family="sans-serif" font-size="14" lengthAdjust="spacing" textLength="196" x="6472.71" y="432.3613">Patronymic : string «get» «set»</text><ellipse cx="6463.71" cy="445.7422" fill="none" rx="3" ry="3" style="stroke:#038048;stroke-width:1.0;"/><text fill="#000000" font-family="sans-serif" font-size="14" lengthAdjust="spacing" textLength="204" x="6472.71" y="449.9707">Birthday : DateTime «get» «set»</text><line style="stroke:#181818;stroke-width:0.5;" x1="6453.71" x2="7041.71" y1="457.0469" y2="457.0469"/><ellipse cx="6463.71" cy="471.3516" fill="#84BE84" rx="3" ry="3" style="stroke:#038048;stroke-width:1.0;"/><text fill="#000000" font-family="sans-serif" font-size="14" lengthAdjust="spacing" textLength="564" x="6472.71" y="475.5801">StudentModel(firstName:string, secondName:string, patronymic:string, birthday:DateTime)</text><ellipse cx="6463.71" cy="488.9609" fill="#84BE84" rx="3" ry="3" style="stroke:#038048;stroke-width:1.0;"/><text fill="#000000" font-family="sans-serif" font-size="14" lengthAdjust="spacing" textLength="191" x="6472.71" y="493.1895">«override» ToString() : string?</text></g><g id="elem_Argument"><rect codeLine="1" fill="#F1F1F1" height="118.4375" id="Argument" rx="2.5" ry="2.5" style="stroke:#181818;stroke-width:0.5;" width="287" x="3408.21" y="560"/><ellipse cx="3516.96" cy="576" fill="#ADD1B2" rx="11" ry="11" style="stroke:#181818;stroke-width:1.0;"/><path d="M3519.7256,571.875 Q3519.8819,571.6563 3520.0694,571.5469 Q3520.2569,571.4375 3520.4756,571.4375 Q3520.8506,571.4375 3521.085,571.7031 Q3521.3194,571.9531 3521.3194,572.5625 L3521.3194,574.0156 Q3521.3194,574.625 3521.085,574.8906 Q3520.8506,575.1563 3520.4756,575.1563 Q3520.1319,575.1563 3519.9288,574.9531 Q3519.7256,574.7656 3519.6163,574.25 Q3519.5694,573.8906 3519.3819,573.7031 Q3519.0538,573.3281 3518.4444,573.1094 Q3517.835,572.8906 3517.21,572.8906 Q3516.4444,572.8906 3515.8038,573.2188 Q3515.1788,573.5469 3514.6788,574.2969 Q3514.1944,575.0469 3514.1944,576.0781 L3514.1944,577.1719 Q3514.1944,578.4063 3515.085,579.2344 Q3515.9756,580.0469 3517.5694,580.0469 Q3518.5069,580.0469 3519.1631,579.7969 Q3519.5538,579.6406 3519.9756,579.2031 Q3520.2413,578.9375 3520.3819,578.8594 Q3520.5381,578.7813 3520.7413,578.7813 Q3521.0694,578.7813 3521.3194,579.0469 Q3521.585,579.2969 3521.585,579.6406 Q3521.585,579.9844 3521.2413,580.3906 Q3520.7413,580.9688 3519.9444,581.2969 Q3518.8663,581.75 3517.5694,581.75 Q3516.0538,581.75 3514.8506,581.125 Q3513.8663,580.625 3513.1788,579.5625 Q3512.4913,578.4844 3512.4913,577.2031 L3512.4913,576.0469 Q3512.4913,574.7188 3513.1006,573.5781 Q3513.7256,572.4219 3514.8194,571.8125 Q3515.9131,571.1875 3517.1475,571.1875 Q3517.8819,571.1875 3518.5225,571.3594 Q3519.1788,571.5156 3519.7256,571.875 Z " fill="#000000"/><text fill="#000000" font-family="sans-serif" font-size="14" lengthAdjust="spacing" textLength="61" x="3537.46" y="581.7285">Argument</text><line style="stroke:#181818;stroke-width:0.5;" x1="3409.21" x2="3694.21" y1="592" y2="592"/><ellipse cx="3419.21" cy="606.3047" fill="none" rx="3" ry="3" style="stroke:#038048;stroke-width:1.0;"/><text fill="#000000" font-family="sans-serif" font-size="14" lengthAdjust="spacing" textLength="162" x="3428.21" y="610.5332">Name : string «get» «set»</text><ellipse cx="3419.21" cy="623.9141" fill="none" rx="3" ry="3" style="stroke:#038048;stroke-width:1.0;"/><text fill="#000000" font-family="sans-serif" font-size="14" lengthAdjust="spacing" textLength="197" x="3428.21" y="628.1426">Description : string «get» «set»</text><line style="stroke:#181818;stroke-width:0.5;" x1="3409.21" x2="3694.21" y1="635.2188" y2="635.2188"/><ellipse cx="3419.21" cy="649.5234" fill="#84BE84" rx="3" ry="3" style="stroke:#038048;stroke-width:1.0;"/><text fill="#000000" font-family="sans-serif" font-size="14" lengthAdjust="spacing" textLength="261" x="3428.21" y="653.752">Argument(name:string, description:string)</text><ellipse cx="3419.21" cy="667.1328" fill="#84BE84" rx="3" ry="3" style="stroke:#038048;stroke-width:1.0;"/><text fill="#000000" font-family="sans-serif" font-size="14" lengthAdjust="spacing" textLength="191" x="3428.21" y="671.3613">«override» ToString() : string?</text></g><g id="elem_GetAvailableCommand"><rect codeLine="1" fill="#F1F1F1" height="118.4375" id="GetAvailableCommand" rx="2.5" ry="2.5" style="stroke:#181818;stroke-width:0.5;" width="317" x="3393.21" y="355.5"/><ellipse cx="3475.46" cy="371.5" fill="#ADD1B2" rx="11" ry="11" style="stroke:#181818;stroke-width:1.0;"/><path d="M3478.2256,367.375 Q3478.3819,367.1563 3478.5694,367.0469 Q3478.7569,366.9375 3478.9756,366.9375 Q3479.3506,366.9375 3479.585,367.2031 Q3479.8194,367.4531 3479.8194,368.0625 L3479.8194,369.5156 Q3479.8194,370.125 3479.585,370.3906 Q3479.3506,370.6563 3478.9756,370.6563 Q3478.6319,370.6563 3478.4288,370.4531 Q3478.2256,370.2656 3478.1163,369.75 Q3478.0694,369.3906 3477.8819,369.2031 Q3477.5538,368.8281 3476.9444,368.6094 Q3476.335,368.3906 3475.71,368.3906 Q3474.9444,368.3906 3474.3038,368.7188 Q3473.6788,369.0469 3473.1788,369.7969 Q3472.6944,370.5469 3472.6944,371.5781 L3472.6944,372.6719 Q3472.6944,373.9063 3473.585,374.7344 Q3474.4756,375.5469 3476.0694,375.5469 Q3477.0069,375.5469 3477.6631,375.2969 Q3478.0538,375.1406 3478.4756,374.7031 Q3478.7413,374.4375 3478.8819,374.3594 Q3479.0381,374.2813 3479.2413,374.2813 Q3479.5694,374.2813 3479.8194,374.5469 Q3480.085,374.7969 3480.085,375.1406 Q3480.085,375.4844 3479.7413,375.8906 Q3479.2413,376.4688 3478.4444,376.7969 Q3477.3663,377.25 3476.0694,377.25 Q3474.5538,377.25 3473.3506,376.625 Q3472.3663,376.125 3471.6788,375.0625 Q3470.9913,373.9844 3470.9913,372.7031 L3470.9913,371.5469 Q3470.9913,370.2188 3471.6006,369.0781 Q3472.2256,367.9219 3473.3194,367.3125 Q3474.4131,366.6875 3475.6475,366.6875 Q3476.3819,366.6875 3477.0225,366.8594 Q3477.6788,367.0156 3478.2256,367.375 Z " fill="#000000"/><text fill="#000000" font-family="sans-serif" font-size="14" lengthAdjust="spacing" textLength="144" x="3495.96" y="377.2285">GetAvailableCommand</text><line style="stroke:#181818;stroke-width:0.5;" x1="3394.21" x2="3709.21" y1="387.5" y2="387.5"/><ellipse cx="3404.21" cy="401.8047" fill="none" rx="3" ry="3" style="stroke:#038048;stroke-width:1.0;"/><text fill="#000000" font-family="sans-serif" font-size="14" lengthAdjust="spacing" textLength="230" x="3413.21" y="406.0332">«override» Description : string «get»</text><ellipse cx="3404.21" cy="419.4141" fill="none" rx="3" ry="3" style="stroke:#038048;stroke-width:1.0;"/><text fill="#000000" font-family="sans-serif" font-size="14" lengthAdjust="spacing" textLength="291" x="3413.21" y="423.6426">«override» Arguments : List&lt;Argument&gt; «get»</text><line style="stroke:#181818;stroke-width:0.5;" x1="3394.21" x2="3709.21" y1="430.7188" y2="430.7188"/><ellipse cx="3404.21" cy="445.0234" fill="#84BE84" rx="3" ry="3" style="stroke:#038048;stroke-width:1.0;"/><text fill="#000000" font-family="sans-serif" font-size="14" lengthAdjust="spacing" textLength="241" x="3413.21" y="449.252">GetAvailableCommand(ctx:MyContext)</text><ellipse cx="3404.21" cy="462.6328" fill="#84BE84" rx="3" ry="3" style="stroke:#038048;stroke-width:1.0;"/><text fill="#000000" font-family="sans-serif" font-size="14" lengthAdjust="spacing" textLength="275" x="3413.21" y="466.8613">«override» Execute(args:List&lt;string&gt;) : void</text></g><g id="elem_LoginCommand"><rect codeLine="1" fill="#F1F1F1" height="118.4375" id="LoginCommand" rx="2.5" ry="2.5" style="stroke:#181818;stroke-width:0.5;" width="413" x="3745.21" y="355.5"/><ellipse cx="3897.96" cy="371.5" fill="#ADD1B2" rx="11" ry="11" style="stroke:#181818;stroke-width:1.0;"/><path d="M3900.7256,367.375 Q3900.8819,367.1563 3901.0694,367.0469 Q3901.2569,366.9375 3901.4756,366.9375 Q3901.8506,366.9375 3902.085,367.2031 Q3902.3194,367.4531 3902.3194,368.0625 L3902.3194,369.5156 Q3902.3194,370.125 3902.085,370.3906 Q3901.8506,370.6563 3901.4756,370.6563 Q3901.1319,370.6563 3900.9288,370.4531 Q3900.7256,370.2656 3900.6163,369.75 Q3900.5694,369.3906 3900.3819,369.2031 Q3900.0538,368.8281 3899.4444,368.6094 Q3898.835,368.3906 3898.21,368.3906 Q3897.4444,368.3906 3896.8038,368.7188 Q3896.1788,369.0469 3895.6788,369.7969 Q3895.1944,370.5469 3895.1944,371.5781 L3895.1944,372.6719 Q3895.1944,373.9063 3896.085,374.7344 Q3896.9756,375.5469 3898.5694,375.5469 Q3899.5069,375.5469 3900.1631,375.2969 Q3900.5538,375.1406 3900.9756,374.7031 Q3901.2413,374.4375 3901.3819,374.3594 Q3901.5381,374.2813 3901.7413,374.2813 Q3902.0694,374.2813 3902.3194,374.5469 Q3902.585,374.7969 3902.585,375.1406 Q3902.585,375.4844 3902.2413,375.8906 Q3901.7413,376.4688 3900.9444,376.7969 Q3899.8663,377.25 3898.5694,377.25 Q3897.0538,377.25 3895.8506,376.625 Q3894.8663,376.125 3894.1788,375.0625 Q3893.4913,373.9844 3893.4913,372.7031 L3893.4913,371.5469 Q3893.4913,370.2188 3894.1006,369.0781 Q3894.7256,367.9219 3895.8194,367.3125 Q3896.9131,366.6875 3898.1475,366.6875 Q3898.8819,366.6875 3899.5225,366.8594 Q3900.1788,367.0156 3900.7256,367.375 Z " fill="#000000"/><text fill="#000000" font-family="sans-serif" font-size="14" lengthAdjust="spacing" textLength="99" x="3918.46" y="377.2285">LoginCommand</text><line style="stroke:#181818;stroke-width:0.5;" x1="3746.21" x2="4157.21" y1="387.5" y2="387.5"/><ellipse cx="3756.21" cy="401.8047" fill="none" rx="3" ry="3" style="stroke:#038048;stroke-width:1.0;"/><text fill="#000000" font-family="sans-serif" font-size="14" lengthAdjust="spacing" textLength="230" x="3765.21" y="406.0332">«override» Description : string «get»</text><ellipse cx="3756.21" cy="419.4141" fill="none" rx="3" ry="3" style="stroke:#038048;stroke-width:1.0;"/><text fill="#000000" font-family="sans-serif" font-size="14" lengthAdjust="spacing" textLength="291" x="3765.21" y="423.6426">«override» Arguments : List&lt;Argument&gt; «get»</text><line style="stroke:#181818;stroke-width:0.5;" x1="3746.21" x2="4157.21" y1="430.7188" y2="430.7188"/><ellipse cx="3756.21" cy="445.0234" fill="#84BE84" rx="3" ry="3" style="stroke:#038048;stroke-width:1.0;"/><text fill="#000000" font-family="sans-serif" font-size="14" lengthAdjust="spacing" textLength="387" x="3765.21" y="449.252">LoginCommand(ctx:MyContext, credentials:List&lt;Credentials&gt;)</text><ellipse cx="3756.21" cy="462.6328" fill="#84BE84" rx="3" ry="3" style="stroke:#038048;stroke-width:1.0;"/><text fill="#000000" font-family="sans-serif" font-size="14" lengthAdjust="spacing" textLength="275" x="3765.21" y="466.8613">«override» Execute(args:List&lt;string&gt;) : void</text></g><g id="elem_LogoutCommand"><rect codeLine="1" fill="#F1F1F1" height="118.4375" id="LogoutCommand" rx="2.5" ry="2.5" style="stroke:#181818;stroke-width:0.5;" width="317" x="4193.21" y="355.5"/><ellipse cx="4293.46" cy="371.5" fill="#ADD1B2" rx="11" ry="11" style="stroke:#181818;stroke-width:1.0;"/><path d="M4296.2256,367.375 Q4296.3819,367.1563 4296.5694,367.0469 Q4296.7569,366.9375 4296.9756,366.9375 Q4297.3506,366.9375 4297.585,367.2031 Q4297.8194,367.4531 4297.8194,368.0625 L4297.8194,369.5156 Q4297.8194,370.125 4297.585,370.3906 Q4297.3506,370.6563 4296.9756,370.6563 Q4296.6319,370.6563 4296.4288,370.4531 Q4296.2256,370.2656 4296.1163,369.75 Q4296.0694,369.3906 4295.8819,369.2031 Q4295.5538,368.8281 4294.9444,368.6094 Q4294.335,368.3906 4293.71,368.3906 Q4292.9444,368.3906 4292.3038,368.7188 Q4291.6788,369.0469 4291.1788,369.7969 Q4290.6944,370.5469 4290.6944,371.5781 L4290.6944,372.6719 Q4290.6944,373.9063 4291.585,374.7344 Q4292.4756,375.5469 4294.0694,375.5469 Q4295.0069,375.5469 4295.6631,375.2969 Q4296.0538,375.1406 4296.4756,374.7031 Q4296.7413,374.4375 4296.8819,374.3594 Q4297.0381,374.2813 4297.2413,374.2813 Q4297.5694,374.2813 4297.8194,374.5469 Q4298.085,374.7969 4298.085,375.1406 Q4298.085,375.4844 4297.7413,375.8906 Q4297.2413,376.4688 4296.4444,376.7969 Q4295.3663,377.25 4294.0694,377.25 Q4292.5538,377.25 4291.3506,376.625 Q4290.3663,376.125 4289.6788,375.0625 Q4288.9913,373.9844 4288.9913,372.7031 L4288.9913,371.5469 Q4288.9913,370.2188 4289.6006,369.0781 Q4290.2256,367.9219 4291.3194,367.3125 Q4292.4131,366.6875 4293.6475,366.6875 Q4294.3819,366.6875 4295.0225,366.8594 Q4295.6788,367.0156 4296.2256,367.375 Z " fill="#000000"/><text fill="#000000" font-family="sans-serif" font-size="14" lengthAdjust="spacing" textLength="108" x="4313.96" y="377.2285">LogoutCommand</text><line style="stroke:#181818;stroke-width:0.5;" x1="4194.21" x2="4509.21" y1="387.5" y2="387.5"/><ellipse cx="4204.21" cy="401.8047" fill="none" rx="3" ry="3" style="stroke:#038048;stroke-width:1.0;"/><text fill="#000000" font-family="sans-serif" font-size="14" lengthAdjust="spacing" textLength="230" x="4213.21" y="406.0332">«override» Description : string «get»</text><ellipse cx="4204.21" cy="419.4141" fill="none" rx="3" ry="3" style="stroke:#038048;stroke-width:1.0;"/><text fill="#000000" font-family="sans-serif" font-size="14" lengthAdjust="spacing" textLength="291" x="4213.21" y="423.6426">«override» Arguments : List&lt;Argument&gt; «get»</text><line style="stroke:#181818;stroke-width:0.5;" x1="4194.21" x2="4509.21" y1="430.7188" y2="430.7188"/><ellipse cx="4204.21" cy="445.0234" fill="#84BE84" rx="3" ry="3" style="stroke:#038048;stroke-width:1.0;"/><text fill="#000000" font-family="sans-serif" font-size="14" lengthAdjust="spacing" textLength="205" x="4213.21" y="449.252">LogoutCommand(ctx:MyContext)</text><ellipse cx="4204.21" cy="462.6328" fill="#84BE84" rx="3" ry="3" style="stroke:#038048;stroke-width:1.0;"/><text fill="#000000" font-family="sans-serif" font-size="14" lengthAdjust="spacing" textLength="275" x="4213.21" y="466.8613">«override» Execute(args:List&lt;string&gt;) : void</text></g><g id="elem_WhoamiCommand"><rect codeLine="1" fill="#F1F1F1" height="118.4375" id="WhoamiCommand" rx="2.5" ry="2.5" style="stroke:#181818;stroke-width:0.5;" width="317" x="4545.21" y="355.5"/><ellipse cx="4641.96" cy="371.5" fill="#ADD1B2" rx="11" ry="11" style="stroke:#181818;stroke-width:1.0;"/><path d="M4644.7256,367.375 Q4644.8819,367.1563 4645.0694,367.0469 Q4645.2569,366.9375 4645.4756,366.9375 Q4645.8506,366.9375 4646.085,367.2031 Q4646.3194,367.4531 4646.3194,368.0625 L4646.3194,369.5156 Q4646.3194,370.125 4646.085,370.3906 Q4645.8506,370.6563 4645.4756,370.6563 Q4645.1319,370.6563 4644.9288,370.4531 Q4644.7256,370.2656 4644.6163,369.75 Q4644.5694,369.3906 4644.3819,369.2031 Q4644.0538,368.8281 4643.4444,368.6094 Q4642.835,368.3906 4642.21,368.3906 Q4641.4444,368.3906 4640.8038,368.7188 Q4640.1788,369.0469 4639.6788,369.7969 Q4639.1944,370.5469 4639.1944,371.5781 L4639.1944,372.6719 Q4639.1944,373.9063 4640.085,374.7344 Q4640.9756,375.5469 4642.5694,375.5469 Q4643.5069,375.5469 4644.1631,375.2969 Q4644.5538,375.1406 4644.9756,374.7031 Q4645.2413,374.4375 4645.3819,374.3594 Q4645.5381,374.2813 4645.7413,374.2813 Q4646.0694,374.2813 4646.3194,374.5469 Q4646.585,374.7969 4646.585,375.1406 Q4646.585,375.4844 4646.2413,375.8906 Q4645.7413,376.4688 4644.9444,376.7969 Q4643.8663,377.25 4642.5694,377.25 Q4641.0538,377.25 4639.8506,376.625 Q4638.8663,376.125 4638.1788,375.0625 Q4637.4913,373.9844 4637.4913,372.7031 L4637.4913,371.5469 Q4637.4913,370.2188 4638.1006,369.0781 Q4638.7256,367.9219 4639.8194,367.3125 Q4640.9131,366.6875 4642.1475,366.6875 Q4642.8819,366.6875 4643.5225,366.8594 Q4644.1788,367.0156 4644.7256,367.375 Z " fill="#000000"/><text fill="#000000" font-family="sans-serif" font-size="14" lengthAdjust="spacing" textLength="115" x="4662.46" y="377.2285">WhoamiCommand</text><line style="stroke:#181818;stroke-width:0.5;" x1="4546.21" x2="4861.21" y1="387.5" y2="387.5"/><ellipse cx="4556.21" cy="401.8047" fill="none" rx="3" ry="3" style="stroke:#038048;stroke-width:1.0;"/><text fill="#000000" font-family="sans-serif" font-size="14" lengthAdjust="spacing" textLength="230" x="4565.21" y="406.0332">«override» Description : string «get»</text><ellipse cx="4556.21" cy="419.4141" fill="none" rx="3" ry="3" style="stroke:#038048;stroke-width:1.0;"/><text fill="#000000" font-family="sans-serif" font-size="14" lengthAdjust="spacing" textLength="291" x="4565.21" y="423.6426">«override» Arguments : List&lt;Argument&gt; «get»</text><line style="stroke:#181818;stroke-width:0.5;" x1="4546.21" x2="4861.21" y1="430.7188" y2="430.7188"/><ellipse cx="4556.21" cy="445.0234" fill="#84BE84" rx="3" ry="3" style="stroke:#038048;stroke-width:1.0;"/><text fill="#000000" font-family="sans-serif" font-size="14" lengthAdjust="spacing" textLength="212" x="4565.21" y="449.252">WhoamiCommand(ctx:MyContext)</text><ellipse cx="4556.21" cy="462.6328" fill="#84BE84" rx="3" ry="3" style="stroke:#038048;stroke-width:1.0;"/><text fill="#000000" font-family="sans-serif" font-size="14" lengthAdjust="spacing" textLength="275" x="4565.21" y="466.8613">«override» Execute(args:List&lt;string&gt;) : void</text></g><g id="elem_AddGroupCommand"><rect codeLine="1" fill="#F1F1F1" height="118.4375" id="AddGroupCommand" rx="2.5" ry="2.5" style="stroke:#181818;stroke-width:0.5;" width="424" x="4897.71" y="355.5"/><ellipse cx="5040.96" cy="371.5" fill="#ADD1B2" rx="11" ry="11" style="stroke:#181818;stroke-width:1.0;"/><path d="M5043.7256,367.375 Q5043.8819,367.1563 5044.0694,367.0469 Q5044.2569,366.9375 5044.4756,366.9375 Q5044.8506,366.9375 5045.085,367.2031 Q5045.3194,367.4531 5045.3194,368.0625 L5045.3194,369.5156 Q5045.3194,370.125 5045.085,370.3906 Q5044.8506,370.6563 5044.4756,370.6563 Q5044.1319,370.6563 5043.9288,370.4531 Q5043.7256,370.2656 5043.6163,369.75 Q5043.5694,369.3906 5043.3819,369.2031 Q5043.0538,368.8281 5042.4444,368.6094 Q5041.835,368.3906 5041.21,368.3906 Q5040.4444,368.3906 5039.8038,368.7188 Q5039.1788,369.0469 5038.6788,369.7969 Q5038.1944,370.5469 5038.1944,371.5781 L5038.1944,372.6719 Q5038.1944,373.9063 5039.085,374.7344 Q5039.9756,375.5469 5041.5694,375.5469 Q5042.5069,375.5469 5043.1631,375.2969 Q5043.5538,375.1406 5043.9756,374.7031 Q5044.2413,374.4375 5044.3819,374.3594 Q5044.5381,374.2813 5044.7413,374.2813 Q5045.0694,374.2813 5045.3194,374.5469 Q5045.585,374.7969 5045.585,375.1406 Q5045.585,375.4844 5045.2413,375.8906 Q5044.7413,376.4688 5043.9444,376.7969 Q5042.8663,377.25 5041.5694,377.25 Q5040.0538,377.25 5038.8506,376.625 Q5037.8663,376.125 5037.1788,375.0625 Q5036.4913,373.9844 5036.4913,372.7031 L5036.4913,371.5469 Q5036.4913,370.2188 5037.1006,369.0781 Q5037.7256,367.9219 5038.8194,367.3125 Q5039.9131,366.6875 5041.1475,366.6875 Q5041.8819,366.6875 5042.5225,366.8594 Q5043.1788,367.0156 5043.7256,367.375 Z " fill="#000000"/><text fill="#000000" font-family="sans-serif" font-size="14" lengthAdjust="spacing" textLength="129" x="5061.46" y="377.2285">AddGroupCommand</text><line style="stroke:#181818;stroke-width:0.5;" x1="4898.71" x2="5320.71" y1="387.5" y2="387.5"/><ellipse cx="4908.71" cy="401.8047" fill="none" rx="3" ry="3" style="stroke:#038048;stroke-width:1.0;"/><text fill="#000000" font-family="sans-serif" font-size="14" lengthAdjust="spacing" textLength="230" x="4917.71" y="406.0332">«override» Description : string «get»</text><ellipse cx="4908.71" cy="419.4141" fill="none" rx="3" ry="3" style="stroke:#038048;stroke-width:1.0;"/><text fill="#000000" font-family="sans-serif" font-size="14" lengthAdjust="spacing" textLength="291" x="4917.71" y="423.6426">«override» Arguments : List&lt;Argument&gt; «get»</text><line style="stroke:#181818;stroke-width:0.5;" x1="4898.71" x2="5320.71" y1="430.7188" y2="430.7188"/><ellipse cx="4908.71" cy="445.0234" fill="#84BE84" rx="3" ry="3" style="stroke:#038048;stroke-width:1.0;"/><text fill="#000000" font-family="sans-serif" font-size="14" lengthAdjust="spacing" textLength="398" x="4917.71" y="449.252">AddGroupCommand(ctx:MyContext, groups:List&lt;GroupModel&gt;)</text><ellipse cx="4908.71" cy="462.6328" fill="#84BE84" rx="3" ry="3" style="stroke:#038048;stroke-width:1.0;"/><text fill="#000000" font-family="sans-serif" font-size="14" lengthAdjust="spacing" textLength="275" x="4917.71" y="466.8613">«override» Execute(args:List&lt;string&gt;) : void</text></g><g id="elem_DeleteGroupCommand"><rect codeLine="1" fill="#F1F1F1" height="118.4375" id="DeleteGroupCommand" rx="2.5" ry="2.5" style="stroke:#181818;stroke-width:0.5;" width="440" x="5356.71" y="355.5"/><ellipse cx="5499.96" cy="371.5" fill="#ADD1B2" rx="11" ry="11" style="stroke:#181818;stroke-width:1.0;"/><path d="M5502.7256,367.375 Q5502.8819,367.1563 5503.0694,367.0469 Q5503.2569,366.9375 5503.4756,366.9375 Q5503.8506,366.9375 5504.085,367.2031 Q5504.3194,367.4531 5504.3194,368.0625 L5504.3194,369.5156 Q5504.3194,370.125 5504.085,370.3906 Q5503.8506,370.6563 5503.4756,370.6563 Q5503.1319,370.6563 5502.9288,370.4531 Q5502.7256,370.2656 5502.6163,369.75 Q5502.5694,369.3906 5502.3819,369.2031 Q5502.0538,368.8281 5501.4444,368.6094 Q5500.835,368.3906 5500.21,368.3906 Q5499.4444,368.3906 5498.8038,368.7188 Q5498.1788,369.0469 5497.6788,369.7969 Q5497.1944,370.5469 5497.1944,371.5781 L5497.1944,372.6719 Q5497.1944,373.9063 5498.085,374.7344 Q5498.9756,375.5469 5500.5694,375.5469 Q5501.5069,375.5469 5502.1631,375.2969 Q5502.5538,375.1406 5502.9756,374.7031 Q5503.2413,374.4375 5503.3819,374.3594 Q5503.5381,374.2813 5503.7413,374.2813 Q5504.0694,374.2813 5504.3194,374.5469 Q5504.585,374.7969 5504.585,375.1406 Q5504.585,375.4844 5504.2413,375.8906 Q5503.7413,376.4688 5502.9444,376.7969 Q5501.8663,377.25 5500.5694,377.25 Q5499.0538,377.25 5497.8506,376.625 Q5496.8663,376.125 5496.1788,375.0625 Q5495.4913,373.9844 5495.4913,372.7031 L5495.4913,371.5469 Q5495.4913,370.2188 5496.1006,369.0781 Q5496.7256,367.9219 5497.8194,367.3125 Q5498.9131,366.6875 5500.1475,366.6875 Q5500.8819,366.6875 5501.5225,366.8594 Q5502.1788,367.0156 5502.7256,367.375 Z " fill="#000000"/><text fill="#000000" font-family="sans-serif" font-size="14" lengthAdjust="spacing" textLength="145" x="5520.46" y="377.2285">DeleteGroupCommand</text><line style="stroke:#181818;stroke-width:0.5;" x1="5357.71" x2="5795.71" y1="387.5" y2="387.5"/><ellipse cx="5367.71" cy="401.8047" fill="none" rx="3" ry="3" style="stroke:#038048;stroke-width:1.0;"/><text fill="#000000" font-family="sans-serif" font-size="14" lengthAdjust="spacing" textLength="230" x="5376.71" y="406.0332">«override» Description : string «get»</text><ellipse cx="5367.71" cy="419.4141" fill="none" rx="3" ry="3" style="stroke:#038048;stroke-width:1.0;"/><text fill="#000000" font-family="sans-serif" font-size="14" lengthAdjust="spacing" textLength="291" x="5376.71" y="423.6426">«override» Arguments : List&lt;Argument&gt; «get»</text><line style="stroke:#181818;stroke-width:0.5;" x1="5357.71" x2="5795.71" y1="430.7188" y2="430.7188"/><ellipse cx="5367.71" cy="445.0234" fill="#84BE84" rx="3" ry="3" style="stroke:#038048;stroke-width:1.0;"/><text fill="#000000" font-family="sans-serif" font-size="14" lengthAdjust="spacing" textLength="414" x="5376.71" y="449.252">DeleteGroupCommand(ctx:MyContext, groups:List&lt;GroupModel&gt;)</text><ellipse cx="5367.71" cy="462.6328" fill="#84BE84" rx="3" ry="3" style="stroke:#038048;stroke-width:1.0;"/><text fill="#000000" font-family="sans-serif" font-size="14" lengthAdjust="spacing" textLength="275" x="5376.71" y="466.8613">«override» Execute(args:List&lt;string&gt;) : void</text></g><g id="elem_GetAllGroupsCommand"><rect codeLine="1" fill="#F1F1F1" height="118.4375" id="GetAllGroupsCommand" rx="2.5" ry="2.5" style="stroke:#181818;stroke-width:0.5;" width="444" x="5831.71" y="355.5"/><ellipse cx="5974.96" cy="371.5" fill="#ADD1B2" rx="11" ry="11" style="stroke:#181818;stroke-width:1.0;"/><path d="M5977.7256,367.375 Q5977.8819,367.1563 5978.0694,367.0469 Q5978.2569,366.9375 5978.4756,366.9375 Q5978.8506,366.9375 5979.085,367.2031 Q5979.3194,367.4531 5979.3194,368.0625 L5979.3194,369.5156 Q5979.3194,370.125 5979.085,370.3906 Q5978.8506,370.6563 5978.4756,370.6563 Q5978.1319,370.6563 5977.9288,370.4531 Q5977.7256,370.2656 5977.6163,369.75 Q5977.5694,369.3906 5977.3819,369.2031 Q5977.0538,368.8281 5976.4444,368.6094 Q5975.835,368.3906 5975.21,368.3906 Q5974.4444,368.3906 5973.8038,368.7188 Q5973.1788,369.0469 5972.6788,369.7969 Q5972.1944,370.5469 5972.1944,371.5781 L5972.1944,372.6719 Q5972.1944,373.9063 5973.085,374.7344 Q5973.9756,375.5469 5975.5694,375.5469 Q5976.5069,375.5469 5977.1631,375.2969 Q5977.5538,375.1406 5977.9756,374.7031 Q5978.2413,374.4375 5978.3819,374.3594 Q5978.5381,374.2813 5978.7413,374.2813 Q5979.0694,374.2813 5979.3194,374.5469 Q5979.585,374.7969 5979.585,375.1406 Q5979.585,375.4844 5979.2413,375.8906 Q5978.7413,376.4688 5977.9444,376.7969 Q5976.8663,377.25 5975.5694,377.25 Q5974.0538,377.25 5972.8506,376.625 Q5971.8663,376.125 5971.1788,375.0625 Q5970.4913,373.9844 5970.4913,372.7031 L5970.4913,371.5469 Q5970.4913,370.2188 5971.1006,369.0781 Q5971.7256,367.9219 5972.8194,367.3125 Q5973.9131,366.6875 5975.1475,366.6875 Q5975.8819,366.6875 5976.5225,366.8594 Q5977.1788,367.0156 5977.7256,367.375 Z " fill="#000000"/><text fill="#000000" font-family="sans-serif" font-size="14" lengthAdjust="spacing" textLength="149" x="5995.46" y="377.2285">GetAllGroupsCommand</text><line style="stroke:#181818;stroke-width:0.5;" x1="5832.71" x2="6274.71" y1="387.5" y2="387.5"/><ellipse cx="5842.71" cy="401.8047" fill="none" rx="3" ry="3" style="stroke:#038048;stroke-width:1.0;"/><text fill="#000000" font-family="sans-serif" font-size="14" lengthAdjust="spacing" textLength="230" x="5851.71" y="406.0332">«override» Description : string «get»</text><ellipse cx="5842.71" cy="419.4141" fill="none" rx="3" ry="3" style="stroke:#038048;stroke-width:1.0;"/><text fill="#000000" font-family="sans-serif" font-size="14" lengthAdjust="spacing" textLength="291" x="5851.71" y="423.6426">«override» Arguments : List&lt;Argument&gt; «get»</text><line style="stroke:#181818;stroke-width:0.5;" x1="5832.71" x2="6274.71" y1="430.7188" y2="430.7188"/><ellipse cx="5842.71" cy="445.0234" fill="#84BE84" rx="3" ry="3" style="stroke:#038048;stroke-width:1.0;"/><text fill="#000000" font-family="sans-serif" font-size="14" lengthAdjust="spacing" textLength="418" x="5851.71" y="449.252">GetAllGroupsCommand(ctx:MyContext, groups:List&lt;GroupModel&gt;)</text><ellipse cx="5842.71" cy="462.6328" fill="#84BE84" rx="3" ry="3" style="stroke:#038048;stroke-width:1.0;"/><text fill="#000000" font-family="sans-serif" font-size="14" lengthAdjust="spacing" textLength="275" x="5851.71" y="466.8613">«override» Execute(args:List&lt;string&gt;) : void</text></g><g id="elem_GetGroupCommand"><rect codeLine="1" fill="#F1F1F1" height="118.4375" id="GetGroupCommand" rx="2.5" ry="2.5" style="stroke:#181818;stroke-width:0.5;" width="422" x="76.71" y="355.5"/><ellipse cx="219.96" cy="371.5" fill="#ADD1B2" rx="11" ry="11" style="stroke:#181818;stroke-width:1.0;"/><path d="M222.7256,367.375 Q222.8819,367.1563 223.0694,367.0469 Q223.2569,366.9375 223.4756,366.9375 Q223.8506,366.9375 224.085,367.2031 Q224.3194,367.4531 224.3194,368.0625 L224.3194,369.5156 Q224.3194,370.125 224.085,370.3906 Q223.8506,370.6563 223.4756,370.6563 Q223.1319,370.6563 222.9288,370.4531 Q222.7256,370.2656 222.6163,369.75 Q222.5694,369.3906 222.3819,369.2031 Q222.0538,368.8281 221.4444,368.6094 Q220.835,368.3906 220.21,368.3906 Q219.4444,368.3906 218.8038,368.7188 Q218.1788,369.0469 217.6788,369.7969 Q217.1944,370.5469 217.1944,371.5781 L217.1944,372.6719 Q217.1944,373.9063 218.085,374.7344 Q218.9756,375.5469 220.5694,375.5469 Q221.5069,375.5469 222.1631,375.2969 Q222.5538,375.1406 222.9756,374.7031 Q223.2413,374.4375 223.3819,374.3594 Q223.5381,374.2813 223.7413,374.2813 Q224.0694,374.2813 224.3194,374.5469 Q224.585,374.7969 224.585,375.1406 Q224.585,375.4844 224.2413,375.8906 Q223.7413,376.4688 222.9444,376.7969 Q221.8663,377.25 220.5694,377.25 Q219.0538,377.25 217.8506,376.625 Q216.8663,376.125 216.1788,375.0625 Q215.4913,373.9844 215.4913,372.7031 L215.4913,371.5469 Q215.4913,370.2188 216.1006,369.0781 Q216.7256,367.9219 217.8194,367.3125 Q218.9131,366.6875 220.1475,366.6875 Q220.8819,366.6875 221.5225,366.8594 Q222.1788,367.0156 222.7256,367.375 Z " fill="#000000"/><text fill="#000000" font-family="sans-serif" font-size="14" lengthAdjust="spacing" textLength="127" x="240.46" y="377.2285">GetGroupCommand</text><line style="stroke:#181818;stroke-width:0.5;" x1="77.71" x2="497.71" y1="387.5" y2="387.5"/><ellipse cx="87.71" cy="401.8047" fill="none" rx="3" ry="3" style="stroke:#038048;stroke-width:1.0;"/><text fill="#000000" font-family="sans-serif" font-size="14" lengthAdjust="spacing" textLength="230" x="96.71" y="406.0332">«override» Description : string «get»</text><ellipse cx="87.71" cy="419.4141" fill="none" rx="3" ry="3" style="stroke:#038048;stroke-width:1.0;"/><text fill="#000000" font-family="sans-serif" font-size="14" lengthAdjust="spacing" textLength="291" x="96.71" y="423.6426">«override» Arguments : List&lt;Argument&gt; «get»</text><line style="stroke:#181818;stroke-width:0.5;" x1="77.71" x2="497.71" y1="430.7188" y2="430.7188"/><ellipse cx="87.71" cy="445.0234" fill="#84BE84" rx="3" ry="3" style="stroke:#038048;stroke-width:1.0;"/><text fill="#000000" font-family="sans-serif" font-size="14" lengthAdjust="spacing" textLength="396" x="96.71" y="449.252">GetGroupCommand(ctx:MyContext, groups:List&lt;GroupModel&gt;)</text><ellipse cx="87.71" cy="462.6328" fill="#84BE84" rx="3" ry="3" style="stroke:#038048;stroke-width:1.0;"/><text fill="#000000" font-family="sans-serif" font-size="14" lengthAdjust="spacing" textLength="275" x="96.71" y="466.8613">«override» Execute(args:List&lt;string&gt;) : void</text></g><g id="elem_UpdateGroupCommand"><rect codeLine="1" fill="#F1F1F1" height="118.4375" id="UpdateGroupCommand" rx="2.5" ry="2.5" style="stroke:#181818;stroke-width:0.5;" width="444" x="533.71" y="355.5"/><ellipse cx="676.96" cy="371.5" fill="#ADD1B2" rx="11" ry="11" style="stroke:#181818;stroke-width:1.0;"/><path d="M679.7256,367.375 Q679.8819,367.1563 680.0694,367.0469 Q680.2569,366.9375 680.4756,366.9375 Q680.8506,366.9375 681.085,367.2031 Q681.3194,367.4531 681.3194,368.0625 L681.3194,369.5156 Q681.3194,370.125 681.085,370.3906 Q680.8506,370.6563 680.4756,370.6563 Q680.1319,370.6563 679.9288,370.4531 Q679.7256,370.2656 679.6163,369.75 Q679.5694,369.3906 679.3819,369.2031 Q679.0538,368.8281 678.4444,368.6094 Q677.835,368.3906 677.21,368.3906 Q676.4444,368.3906 675.8038,368.7188 Q675.1788,369.0469 674.6788,369.7969 Q674.1944,370.5469 674.1944,371.5781 L674.1944,372.6719 Q674.1944,373.9063 675.085,374.7344 Q675.9756,375.5469 677.5694,375.5469 Q678.5069,375.5469 679.1631,375.2969 Q679.5538,375.1406 679.9756,374.7031 Q680.2413,374.4375 680.3819,374.3594 Q680.5381,374.2813 680.7413,374.2813 Q681.0694,374.2813 681.3194,374.5469 Q681.585,374.7969 681.585,375.1406 Q681.585,375.4844 681.2413,375.8906 Q680.7413,376.4688 679.9444,376.7969 Q678.8663,377.25 677.5694,377.25 Q676.0538,377.25 674.8506,376.625 Q673.8663,376.125 673.1788,375.0625 Q672.4913,373.9844 672.4913,372.7031 L672.4913,371.5469 Q672.4913,370.2188 673.1006,369.0781 Q673.7256,367.9219 674.8194,367.3125 Q675.9131,366.6875 677.1475,366.6875 Q677.8819,366.6875 678.5225,366.8594 Q679.1788,367.0156 679.7256,367.375 Z " fill="#000000"/><text fill="#000000" font-family="sans-serif" font-size="14" lengthAdjust="spacing" textLength="149" x="697.46" y="377.2285">UpdateGroupCommand</text><line style="stroke:#181818;stroke-width:0.5;" x1="534.71" x2="976.71" y1="387.5" y2="387.5"/><ellipse cx="544.71" cy="401.8047" fill="none" rx="3" ry="3" style="stroke:#038048;stroke-width:1.0;"/><text fill="#000000" font-family="sans-serif" font-size="14" lengthAdjust="spacing" textLength="230" x="553.71" y="406.0332">«override» Description : string «get»</text><ellipse cx="544.71" cy="419.4141" fill="none" rx="3" ry="3" style="stroke:#038048;stroke-width:1.0;"/><text fill="#000000" font-family="sans-serif" font-size="14" lengthAdjust="spacing" textLength="291" x="553.71" y="423.6426">«override» Arguments : List&lt;Argument&gt; «get»</text><line style="stroke:#181818;stroke-width:0.5;" x1="534.71" x2="976.71" y1="430.7188" y2="430.7188"/><ellipse cx="544.71" cy="445.0234" fill="#84BE84" rx="3" ry="3" style="stroke:#038048;stroke-width:1.0;"/><text fill="#000000" font-family="sans-serif" font-size="14" lengthAdjust="spacing" textLength="418" x="553.71" y="449.252">UpdateGroupCommand(ctx:MyContext, groups:List&lt;GroupModel&gt;)</text><ellipse cx="544.71" cy="462.6328" fill="#84BE84" rx="3" ry="3" style="stroke:#038048;stroke-width:1.0;"/><text fill="#000000" font-family="sans-serif" font-size="14" lengthAdjust="spacing" textLength="275" x="553.71" y="466.8613">«override» Execute(args:List&lt;string&gt;) : void</text></g><g id="elem_AddStudentCommand"><rect codeLine="1" fill="#F1F1F1" height="118.4375" id="AddStudentCommand" rx="2.5" ry="2.5" style="stroke:#181818;stroke-width:0.5;" width="433" x="1013.21" y="355.5"/><ellipse cx="1156.46" cy="371.5" fill="#ADD1B2" rx="11" ry="11" style="stroke:#181818;stroke-width:1.0;"/><path d="M1159.2256,367.375 Q1159.3819,367.1563 1159.5694,367.0469 Q1159.7569,366.9375 1159.9756,366.9375 Q1160.3506,366.9375 1160.585,367.2031 Q1160.8194,367.4531 1160.8194,368.0625 L1160.8194,369.5156 Q1160.8194,370.125 1160.585,370.3906 Q1160.3506,370.6563 1159.9756,370.6563 Q1159.6319,370.6563 1159.4288,370.4531 Q1159.2256,370.2656 1159.1163,369.75 Q1159.0694,369.3906 1158.8819,369.2031 Q1158.5538,368.8281 1157.9444,368.6094 Q1157.335,368.3906 1156.71,368.3906 Q1155.9444,368.3906 1155.3038,368.7188 Q1154.6788,369.0469 1154.1788,369.7969 Q1153.6944,370.5469 1153.6944,371.5781 L1153.6944,372.6719 Q1153.6944,373.9063 1154.585,374.7344 Q1155.4756,375.5469 1157.0694,375.5469 Q1158.0069,375.5469 1158.6631,375.2969 Q1159.0538,375.1406 1159.4756,374.7031 Q1159.7413,374.4375 1159.8819,374.3594 Q1160.0381,374.2813 1160.2413,374.2813 Q1160.5694,374.2813 1160.8194,374.5469 Q1161.085,374.7969 1161.085,375.1406 Q1161.085,375.4844 1160.7413,375.8906 Q1160.2413,376.4688 1159.4444,376.7969 Q1158.3663,377.25 1157.0694,377.25 Q1155.5538,377.25 1154.3506,376.625 Q1153.3663,376.125 1152.6788,375.0625 Q1151.9913,373.9844 1151.9913,372.7031 L1151.9913,371.5469 Q1151.9913,370.2188 1152.6006,369.0781 Q1153.2256,367.9219 1154.3194,367.3125 Q1155.4131,366.6875 1156.6475,366.6875 Q1157.3819,366.6875 1158.0225,366.8594 Q1158.6788,367.0156 1159.2256,367.375 Z " fill="#000000"/><text fill="#000000" font-family="sans-serif" font-size="14" lengthAdjust="spacing" textLength="138" x="1176.96" y="377.2285">AddStudentCommand</text><line style="stroke:#181818;stroke-width:0.5;" x1="1014.21" x2="1445.21" y1="387.5" y2="387.5"/><ellipse cx="1024.21" cy="401.8047" fill="none" rx="3" ry="3" style="stroke:#038048;stroke-width:1.0;"/><text fill="#000000" font-family="sans-serif" font-size="14" lengthAdjust="spacing" textLength="230" x="1033.21" y="406.0332">«override» Description : string «get»</text><ellipse cx="1024.21" cy="419.4141" fill="none" rx="3" ry="3" style="stroke:#038048;stroke-width:1.0;"/><text fill="#000000" font-family="sans-serif" font-size="14" lengthAdjust="spacing" textLength="284" x="1033.21" y="423.6426">«override» Argument : List&lt;Argument&gt; «get»</text><line style="stroke:#181818;stroke-width:0.5;" x1="1014.21" x2="1445.21" y1="430.7188" y2="430.7188"/><ellipse cx="1024.21" cy="445.0234" fill="#84BE84" rx="3" ry="3" style="stroke:#038048;stroke-width:1.0;"/><text fill="#000000" font-family="sans-serif" font-size="14" lengthAdjust="spacing" textLength="407" x="1033.21" y="449.252">AddStudentCommand(ctx:MyContext, groups:List&lt;GroupModel&gt;)</text><ellipse cx="1024.21" cy="462.6328" fill="#84BE84" rx="3" ry="3" style="stroke:#038048;stroke-width:1.0;"/><text fill="#000000" font-family="sans-serif" font-size="14" lengthAdjust="spacing" textLength="275" x="1033.21" y="466.8613">«override» Execute(args:List&lt;string&gt;) : void</text></g><g id="elem_DeleteStudentCommand"><rect codeLine="1" fill="#F1F1F1" height="118.4375" id="DeleteStudentCommand" rx="2.5" ry="2.5" style="stroke:#181818;stroke-width:0.5;" width="449" x="1481.21" y="355.5"/><ellipse cx="1624.46" cy="371.5" fill="#ADD1B2" rx="11" ry="11" style="stroke:#181818;stroke-width:1.0;"/><path d="M1627.2256,367.375 Q1627.3819,367.1563 1627.5694,367.0469 Q1627.7569,366.9375 1627.9756,366.9375 Q1628.3506,366.9375 1628.585,367.2031 Q1628.8194,367.4531 1628.8194,368.0625 L1628.8194,369.5156 Q1628.8194,370.125 1628.585,370.3906 Q1628.3506,370.6563 1627.9756,370.6563 Q1627.6319,370.6563 1627.4287,370.4531 Q1627.2256,370.2656 1627.1162,369.75 Q1627.0694,369.3906 1626.8819,369.2031 Q1626.5537,368.8281 1625.9444,368.6094 Q1625.335,368.3906 1624.71,368.3906 Q1623.9444,368.3906 1623.3037,368.7188 Q1622.6787,369.0469 1622.1787,369.7969 Q1621.6944,370.5469 1621.6944,371.5781 L1621.6944,372.6719 Q1621.6944,373.9063 1622.585,374.7344 Q1623.4756,375.5469 1625.0694,375.5469 Q1626.0069,375.5469 1626.6631,375.2969 Q1627.0537,375.1406 1627.4756,374.7031 Q1627.7412,374.4375 1627.8819,374.3594 Q1628.0381,374.2813 1628.2412,374.2813 Q1628.5694,374.2813 1628.8194,374.5469 Q1629.085,374.7969 1629.085,375.1406 Q1629.085,375.4844 1628.7412,375.8906 Q1628.2412,376.4688 1627.4444,376.7969 Q1626.3662,377.25 1625.0694,377.25 Q1623.5537,377.25 1622.3506,376.625 Q1621.3662,376.125 1620.6787,375.0625 Q1619.9912,373.9844 1619.9912,372.7031 L1619.9912,371.5469 Q1619.9912,370.2188 1620.6006,369.0781 Q1621.2256,367.9219 1622.3194,367.3125 Q1623.4131,366.6875 1624.6475,366.6875 Q1625.3819,366.6875 1626.0225,366.8594 Q1626.6787,367.0156 1627.2256,367.375 Z " fill="#000000"/><text fill="#000000" font-family="sans-serif" font-size="14" lengthAdjust="spacing" textLength="154" x="1644.96" y="377.2285">DeleteStudentCommand</text><line style="stroke:#181818;stroke-width:0.5;" x1="1482.21" x2="1929.21" y1="387.5" y2="387.5"/><ellipse cx="1492.21" cy="401.8047" fill="none" rx="3" ry="3" style="stroke:#038048;stroke-width:1.0;"/><text fill="#000000" font-family="sans-serif" font-size="14" lengthAdjust="spacing" textLength="230" x="1501.21" y="406.0332">«override» Description : string «get»</text><ellipse cx="1492.21" cy="419.4141" fill="none" rx="3" ry="3" style="stroke:#038048;stroke-width:1.0;"/><text fill="#000000" font-family="sans-serif" font-size="14" lengthAdjust="spacing" textLength="291" x="1501.21" y="423.6426">«override» Arguments : List&lt;Argument&gt; «get»</text><line style="stroke:#181818;stroke-width:0.5;" x1="1482.21" x2="1929.21" y1="430.7188" y2="430.7188"/><ellipse cx="1492.21" cy="445.0234" fill="#84BE84" rx="3" ry="3" style="stroke:#038048;stroke-width:1.0;"/><text fill="#000000" font-family="sans-serif" font-size="14" lengthAdjust="spacing" textLength="423" x="1501.21" y="449.252">DeleteStudentCommand(ctx:MyContext, groups:List&lt;GroupModel&gt;)</text><ellipse cx="1492.21" cy="462.6328" fill="#84BE84" rx="3" ry="3" style="stroke:#038048;stroke-width:1.0;"/><text fill="#000000" font-family="sans-serif" font-size="14" lengthAdjust="spacing" textLength="275" x="1501.21" y="466.8613">«override» Execute(args:List&lt;string&gt;) : void</text></g><g id="elem_GetStudentCommand"><rect codeLine="1" fill="#F1F1F1" height="118.4375" id="GetStudentCommand" rx="2.5" ry="2.5" style="stroke:#181818;stroke-width:0.5;" width="431" x="1965.21" y="355.5"/><ellipse cx="2108.46" cy="371.5" fill="#ADD1B2" rx="11" ry="11" style="stroke:#181818;stroke-width:1.0;"/><path d="M2111.2256,367.375 Q2111.3819,367.1563 2111.5694,367.0469 Q2111.7569,366.9375 2111.9756,366.9375 Q2112.3506,366.9375 2112.585,367.2031 Q2112.8194,367.4531 2112.8194,368.0625 L2112.8194,369.5156 Q2112.8194,370.125 2112.585,370.3906 Q2112.3506,370.6563 2111.9756,370.6563 Q2111.6319,370.6563 2111.4288,370.4531 Q2111.2256,370.2656 2111.1163,369.75 Q2111.0694,369.3906 2110.8819,369.2031 Q2110.5538,368.8281 2109.9444,368.6094 Q2109.335,368.3906 2108.71,368.3906 Q2107.9444,368.3906 2107.3038,368.7188 Q2106.6788,369.0469 2106.1788,369.7969 Q2105.6944,370.5469 2105.6944,371.5781 L2105.6944,372.6719 Q2105.6944,373.9063 2106.585,374.7344 Q2107.4756,375.5469 2109.0694,375.5469 Q2110.0069,375.5469 2110.6631,375.2969 Q2111.0538,375.1406 2111.4756,374.7031 Q2111.7413,374.4375 2111.8819,374.3594 Q2112.0381,374.2813 2112.2413,374.2813 Q2112.5694,374.2813 2112.8194,374.5469 Q2113.085,374.7969 2113.085,375.1406 Q2113.085,375.4844 2112.7413,375.8906 Q2112.2413,376.4688 2111.4444,376.7969 Q2110.3663,377.25 2109.0694,377.25 Q2107.5538,377.25 2106.3506,376.625 Q2105.3663,376.125 2104.6788,375.0625 Q2103.9913,373.9844 2103.9913,372.7031 L2103.9913,371.5469 Q2103.9913,370.2188 2104.6006,369.0781 Q2105.2256,367.9219 2106.3194,367.3125 Q2107.4131,366.6875 2108.6475,366.6875 Q2109.3819,366.6875 2110.0225,366.8594 Q2110.6788,367.0156 2111.2256,367.375 Z " fill="#000000"/><text fill="#000000" font-family="sans-serif" font-size="14" lengthAdjust="spacing" textLength="136" x="2128.96" y="377.2285">GetStudentCommand</text><line style="stroke:#181818;stroke-width:0.5;" x1="1966.21" x2="2395.21" y1="387.5" y2="387.5"/><ellipse cx="1976.21" cy="401.8047" fill="none" rx="3" ry="3" style="stroke:#038048;stroke-width:1.0;"/><text fill="#000000" font-family="sans-serif" font-size="14" lengthAdjust="spacing" textLength="230" x="1985.21" y="406.0332">«override» Description : string «get»</text><ellipse cx="1976.21" cy="419.4141" fill="none" rx="3" ry="3" style="stroke:#038048;stroke-width:1.0;"/><text fill="#000000" font-family="sans-serif" font-size="14" lengthAdjust="spacing" textLength="291" x="1985.21" y="423.6426">«override» Arguments : List&lt;Argument&gt; «get»</text><line style="stroke:#181818;stroke-width:0.5;" x1="1966.21" x2="2395.21" y1="430.7188" y2="430.7188"/><ellipse cx="1976.21" cy="445.0234" fill="#84BE84" rx="3" ry="3" style="stroke:#038048;stroke-width:1.0;"/><text fill="#000000" font-family="sans-serif" font-size="14" lengthAdjust="spacing" textLength="405" x="1985.21" y="449.252">GetStudentCommand(ctx:MyContext, groups:List&lt;GroupModel&gt;)</text><ellipse cx="1976.21" cy="462.6328" fill="#84BE84" rx="3" ry="3" style="stroke:#038048;stroke-width:1.0;"/><text fill="#000000" font-family="sans-serif" font-size="14" lengthAdjust="spacing" textLength="275" x="1985.21" y="466.8613">«override» Execute(args:List&lt;string&gt;) : void</text></g><g id="elem_GetStudentsCommand"><rect codeLine="1" fill="#F1F1F1" height="118.4375" id="GetStudentsCommand" rx="2.5" ry="2.5" style="stroke:#181818;stroke-width:0.5;" width="438" x="2431.71" y="355.5"/><ellipse cx="2574.96" cy="371.5" fill="#ADD1B2" rx="11" ry="11" style="stroke:#181818;stroke-width:1.0;"/><path d="M2577.7256,367.375 Q2577.8819,367.1563 2578.0694,367.0469 Q2578.2569,366.9375 2578.4756,366.9375 Q2578.8506,366.9375 2579.085,367.2031 Q2579.3194,367.4531 2579.3194,368.0625 L2579.3194,369.5156 Q2579.3194,370.125 2579.085,370.3906 Q2578.8506,370.6563 2578.4756,370.6563 Q2578.1319,370.6563 2577.9288,370.4531 Q2577.7256,370.2656 2577.6163,369.75 Q2577.5694,369.3906 2577.3819,369.2031 Q2577.0538,368.8281 2576.4444,368.6094 Q2575.835,368.3906 2575.21,368.3906 Q2574.4444,368.3906 2573.8038,368.7188 Q2573.1788,369.0469 2572.6788,369.7969 Q2572.1944,370.5469 2572.1944,371.5781 L2572.1944,372.6719 Q2572.1944,373.9063 2573.085,374.7344 Q2573.9756,375.5469 2575.5694,375.5469 Q2576.5069,375.5469 2577.1631,375.2969 Q2577.5538,375.1406 2577.9756,374.7031 Q2578.2413,374.4375 2578.3819,374.3594 Q2578.5381,374.2813 2578.7413,374.2813 Q2579.0694,374.2813 2579.3194,374.5469 Q2579.585,374.7969 2579.585,375.1406 Q2579.585,375.4844 2579.2413,375.8906 Q2578.7413,376.4688 2577.9444,376.7969 Q2576.8663,377.25 2575.5694,377.25 Q2574.0538,377.25 2572.8506,376.625 Q2571.8663,376.125 2571.1788,375.0625 Q2570.4913,373.9844 2570.4913,372.7031 L2570.4913,371.5469 Q2570.4913,370.2188 2571.1006,369.0781 Q2571.7256,367.9219 2572.8194,367.3125 Q2573.9131,366.6875 2575.1475,366.6875 Q2575.8819,366.6875 2576.5225,366.8594 Q2577.1788,367.0156 2577.7256,367.375 Z " fill="#000000"/><text fill="#000000" font-family="sans-serif" font-size="14" lengthAdjust="spacing" textLength="143" x="2595.46" y="377.2285">GetStudentsCommand</text><line style="stroke:#181818;stroke-width:0.5;" x1="2432.71" x2="2868.71" y1="387.5" y2="387.5"/><ellipse cx="2442.71" cy="401.8047" fill="none" rx="3" ry="3" style="stroke:#038048;stroke-width:1.0;"/><text fill="#000000" font-family="sans-serif" font-size="14" lengthAdjust="spacing" textLength="230" x="2451.71" y="406.0332">«override» Description : string «get»</text><ellipse cx="2442.71" cy="419.4141" fill="none" rx="3" ry="3" style="stroke:#038048;stroke-width:1.0;"/><text fill="#000000" font-family="sans-serif" font-size="14" lengthAdjust="spacing" textLength="291" x="2451.71" y="423.6426">«override» Arguments : List&lt;Argument&gt; «get»</text><line style="stroke:#181818;stroke-width:0.5;" x1="2432.71" x2="2868.71" y1="430.7188" y2="430.7188"/><ellipse cx="2442.71" cy="445.0234" fill="#84BE84" rx="3" ry="3" style="stroke:#038048;stroke-width:1.0;"/><text fill="#000000" font-family="sans-serif" font-size="14" lengthAdjust="spacing" textLength="412" x="2451.71" y="449.252">GetStudentsCommand(ctx:MyContext, groups:List&lt;GroupModel&gt;)</text><ellipse cx="2442.71" cy="462.6328" fill="#84BE84" rx="3" ry="3" style="stroke:#038048;stroke-width:1.0;"/><text fill="#000000" font-family="sans-serif" font-size="14" lengthAdjust="spacing" textLength="275" x="2451.71" y="466.8613">«override» Execute(args:List&lt;string&gt;) : void</text></g><g id="elem_UpdateStudentCommand"><rect codeLine="1" fill="#F1F1F1" height="118.4375" id="UpdateStudentCommand" rx="2.5" ry="2.5" style="stroke:#181818;stroke-width:0.5;" width="453" x="2905.21" y="355.5"/><ellipse cx="3048.46" cy="371.5" fill="#ADD1B2" rx="11" ry="11" style="stroke:#181818;stroke-width:1.0;"/><path d="M3051.2256,367.375 Q3051.3819,367.1563 3051.5694,367.0469 Q3051.7569,366.9375 3051.9756,366.9375 Q3052.3506,366.9375 3052.585,367.2031 Q3052.8194,367.4531 3052.8194,368.0625 L3052.8194,369.5156 Q3052.8194,370.125 3052.585,370.3906 Q3052.3506,370.6563 3051.9756,370.6563 Q3051.6319,370.6563 3051.4288,370.4531 Q3051.2256,370.2656 3051.1163,369.75 Q3051.0694,369.3906 3050.8819,369.2031 Q3050.5538,368.8281 3049.9444,368.6094 Q3049.335,368.3906 3048.71,368.3906 Q3047.9444,368.3906 3047.3038,368.7188 Q3046.6788,369.0469 3046.1788,369.7969 Q3045.6944,370.5469 3045.6944,371.5781 L3045.6944,372.6719 Q3045.6944,373.9063 3046.585,374.7344 Q3047.4756,375.5469 3049.0694,375.5469 Q3050.0069,375.5469 3050.6631,375.2969 Q3051.0538,375.1406 3051.4756,374.7031 Q3051.7413,374.4375 3051.8819,374.3594 Q3052.0381,374.2813 3052.2413,374.2813 Q3052.5694,374.2813 3052.8194,374.5469 Q3053.085,374.7969 3053.085,375.1406 Q3053.085,375.4844 3052.7413,375.8906 Q3052.2413,376.4688 3051.4444,376.7969 Q3050.3663,377.25 3049.0694,377.25 Q3047.5538,377.25 3046.3506,376.625 Q3045.3663,376.125 3044.6788,375.0625 Q3043.9913,373.9844 3043.9913,372.7031 L3043.9913,371.5469 Q3043.9913,370.2188 3044.6006,369.0781 Q3045.2256,367.9219 3046.3194,367.3125 Q3047.4131,366.6875 3048.6475,366.6875 Q3049.3819,366.6875 3050.0225,366.8594 Q3050.6788,367.0156 3051.2256,367.375 Z " fill="#000000"/><text fill="#000000" font-family="sans-serif" font-size="14" lengthAdjust="spacing" textLength="158" x="3068.96" y="377.2285">UpdateStudentCommand</text><line style="stroke:#181818;stroke-width:0.5;" x1="2906.21" x2="3357.21" y1="387.5" y2="387.5"/><ellipse cx="2916.21" cy="401.8047" fill="none" rx="3" ry="3" style="stroke:#038048;stroke-width:1.0;"/><text fill="#000000" font-family="sans-serif" font-size="14" lengthAdjust="spacing" textLength="230" x="2925.21" y="406.0332">«override» Description : string «get»</text><ellipse cx="2916.21" cy="419.4141" fill="none" rx="3" ry="3" style="stroke:#038048;stroke-width:1.0;"/><text fill="#000000" font-family="sans-serif" font-size="14" lengthAdjust="spacing" textLength="291" x="2925.21" y="423.6426">«override» Arguments : List&lt;Argument&gt; «get»</text><line style="stroke:#181818;stroke-width:0.5;" x1="2906.21" x2="3357.21" y1="430.7188" y2="430.7188"/><ellipse cx="2916.21" cy="445.0234" fill="#84BE84" rx="3" ry="3" style="stroke:#038048;stroke-width:1.0;"/><text fill="#000000" font-family="sans-serif" font-size="14" lengthAdjust="spacing" textLength="427" x="2925.21" y="449.252">UpdateStudentCommand(ctx:MyContext, groups:List&lt;GroupModel&gt;)</text><ellipse cx="2916.21" cy="462.6328" fill="#84BE84" rx="3" ry="3" style="stroke:#038048;stroke-width:1.0;"/><text fill="#000000" font-family="sans-serif" font-size="14" lengthAdjust="spacing" textLength="275" x="2925.21" y="466.8613">«override» Execute(args:List&lt;string&gt;) : void</text></g><g id="link_Program_Credentials"><path codeLine="4" d="M5265.23,44.5 C5586.28,60.07 6645,139.3 6338.71,500 C6127.5,748.74 5204.09,650.55 4889.71,738 C4885.62,739.14 4881.48,740.37 4877.31,741.67 " fill="none" id="Program-to-Credentials" style="stroke:#181818;stroke-width:1.0;"/><polygon fill="#181818" points="4872.42,743.23,4882.2083,744.3201,4877.1858,741.7175,4879.7884,736.6949,4872.42,743.23" style="stroke:#181818;stroke-width:1.0;"/></g><g id="link_Program_MyContext"><path codeLine="5" d="M5085.99,42.58 C4417.82,54.79 238.64,138.66 58.71,329 C6.5,384.23 6,445.26 58.71,500 C163.38,608.69 2443.62,617.59 3041.33,618.05 " fill="none" id="Program-to-MyContext" style="stroke:#181818;stroke-width:1.0;"/><polygon fill="#181818" points="3046.55,618.06,3037.55,614.06,3041.55,618.06,3037.55,622.06,3046.55,618.06" style="stroke:#181818;stroke-width:1.0;"/></g><g id="link_Program_GroupModel"><path codeLine="6" d="M5265.46,41.8 C5471.8,44.89 5995.31,59.93 6425.71,133 C6456.71,138.26 6489.45,145.68 6520.63,153.68 " fill="none" id="Program-to-GroupModel" style="stroke:#181818;stroke-width:1.0;"/><polygon fill="#181818" points="6525.62,154.97,6517.8968,148.8583,6520.7769,153.7271,6515.9082,156.6072,6525.62,154.97" style="stroke:#181818;stroke-width:1.0;"/></g><g id="link_Program_BaseCommand"><path codeLine="7" d="M5086.1,51.01 C4840.86,78.39 4158.33,154.6 3876.2,186.1 " fill="none" id="Program-to-BaseCommand" style="stroke:#181818;stroke-width:1.0;"/><polygon fill="#181818" points="3870.84,186.7,3880.2295,189.6728,3875.8089,186.1431,3879.3385,181.7225,3870.84,186.7" style="stroke:#181818;stroke-width:1.0;"/></g><g id="link_Credentials_Role"><path codeLine="6" d="M4808.97,839.03 C4825.6,858.07 4844.4,879.6 4860.32,897.83 " fill="none" id="Credentials-to-Role" style="stroke:#181818;stroke-width:1.0;"/><polygon fill="#181818" points="4863.88,901.9,4860.984,892.4865,4860.5956,898.13,4854.9521,897.7416,4863.88,901.9" style="stroke:#181818;stroke-width:1.0;"/></g><g id="link_MyContext_Credentials"><path codeLine="4" d="M3283.09,652.06 C3316.92,661.84 3355.16,671.67 3390.71,678 C3854.97,760.72 4418.59,780.97 4654,785.91 " fill="none" id="MyContext-to-Credentials" style="stroke:#181818;stroke-width:1.0;"/><polygon fill="#181818" points="4659.16,786.02,4650.2538,781.8154,4654.1613,785.9057,4650.0709,789.8133,4659.16,786.02" style="stroke:#181818;stroke-width:1.0;"/></g><g id="link_PermittedActivities_Role"><path codeLine="4" d="M5000.4,821.68 C4980.62,844.15 4954.06,874.33 4932.77,898.52 " fill="none" id="PermittedActivities-to-Role" style="stroke:#181818;stroke-width:1.0;"/><polygon fill="#181818" points="4929.4,902.35,4938.3534,898.2468,4932.7076,898.6004,4932.3541,892.9546,4929.4,902.35" style="stroke:#181818;stroke-width:1.0;"/></g><g id="link_GroupModel_StudentModel"><path codeLine="8" d="M6697.91,269.21 C6703.9,286.57 6710.45,305.53 6716.77,323.84 " fill="none" id="GroupModel-to-StudentModel" style="stroke:#181818;stroke-width:1.0;"/><polygon fill="#181818" points="6718.54,328.98,6719.3648,319.1657,6716.8991,324.2569,6711.8079,321.7912,6718.54,328.98" style="stroke:#181818;stroke-width:1.0;"/></g><g id="link_BaseCommand_Argument"><path codeLine="8" d="M3871.04,203.44 C4362.53,209.96 6208.3,240.27 6292.71,329 C6345.09,384.07 6345.28,445.12 6292.71,500 C6202.5,594.18 4259.77,613.58 3700.88,617.22 " fill="none" id="BaseCommand-to-Argument" style="stroke:#181818;stroke-width:1.0;"/><polygon fill="#181818" points="3695.58,617.26,3704.6027,621.2085,3700.5799,617.2314,3704.557,613.2086,3695.58,617.26" style="stroke:#181818;stroke-width:1.0;"/></g><g id="link_BaseCommand_GetAvailableCommand"><path codeLine="7" d="M3674.35,283.81 C3651.77,307.69 3627.57,333.28 3606.68,355.37 " fill="none" id="BaseCommand-backto-GetAvailableCommand" style="stroke:#181818;stroke-width:1.0;"/><polygon fill="none" points="3669.33,278.93,3688.16,269.21,3679.5,288.55,3669.33,278.93" style="stroke:#181818;stroke-width:1.0;"/></g><g id="link_GetAvailableCommand_Argument"><path codeLine="8" d="M3551.71,473.53 C3551.71,498.95 3551.71,528.84 3551.71,554.82 " fill="none" id="GetAvailableCommand-to-Argument" style="stroke:#181818;stroke-width:1.0;"/><polygon fill="#181818" points="3551.71,559.96,3555.71,550.96,3551.71,554.96,3547.71,550.96,3551.71,559.96" style="stroke:#181818;stroke-width:1.0;"/></g><g id="link_GetAvailableCommand_MyContext"><path codeLine="9" d="M3446.26,473.53 C3381.7,509.05 3301.26,553.31 3246.55,583.42 " fill="none" id="GetAvailableCommand-to-MyContext" style="stroke:#181818;stroke-width:1.0;"/><polygon fill="#181818" points="3242,585.93,3251.8133,585.0939,3246.3802,583.5188,3247.9553,578.0856,3242,585.93" style="stroke:#181818;stroke-width:1.0;"/></g><g id="link_BaseCommand_LoginCommand"><path codeLine="7" d="M3829.07,283.81 C3851.65,307.69 3875.86,333.28 3896.75,355.37 " fill="none" id="BaseCommand-backto-LoginCommand" style="stroke:#181818;stroke-width:1.0;"/><polygon fill="none" points="3823.92,288.55,3815.27,269.21,3834.1,278.93,3823.92,288.55" style="stroke:#181818;stroke-width:1.0;"/></g><g id="link_LoginCommand_Argument"><path codeLine="8" d="M3837.09,473.53 C3785.1,499.85 3723.63,530.97 3671.09,557.57 " fill="none" id="LoginCommand-to-Argument" style="stroke:#181818;stroke-width:1.0;"/><polygon fill="#181818" points="3666.35,559.96,3676.1869,559.4751,3670.8135,557.7068,3672.5819,552.3335,3666.35,559.96" style="stroke:#181818;stroke-width:1.0;"/></g><g id="link_LoginCommand_MyContext"><path codeLine="9" d="M3809.62,473.59 C3782.7,483.31 3754.56,492.61 3727.71,500 C3581.03,540.35 3539.02,526.1 3390.71,560 C3359.54,567.12 3326.06,575.97 3295.29,584.6 " fill="none" id="LoginCommand-to-MyContext" style="stroke:#181818;stroke-width:1.0;"/><polygon fill="#181818" points="3290.38,585.98,3300.1238,587.4148,3295.1962,584.6366,3297.9744,579.709,3290.38,585.98" style="stroke:#181818;stroke-width:1.0;"/></g><g id="link_BaseCommand_LogoutCommand"><path codeLine="7" d="M3890.19,237.57 C3973.94,260.54 4082.24,292.82 4175.71,329 C4195.94,336.83 4217.06,346.03 4237.35,355.42 " fill="none" id="BaseCommand-backto-LogoutCommand" style="stroke:#181818;stroke-width:1.0;"/><polygon fill="none" points="3888.28,244.31,3870.81,232.31,3891.95,230.8,3888.28,244.31" style="stroke:#181818;stroke-width:1.0;"/></g><g id="link_LogoutCommand_Argument"><path codeLine="8" d="M4241.8,473.65 C4220.29,483.48 4197.61,492.81 4175.71,500 C4017.51,551.95 3828.78,583.67 3700.62,600.95 " fill="none" id="LogoutCommand-to-Argument" style="stroke:#181818;stroke-width:1.0;"/><polygon fill="#181818" points="3695.32,601.66,3704.7754,604.4158,3700.2748,600.9889,3703.7017,596.4882,3695.32,601.66" style="stroke:#181818;stroke-width:1.0;"/></g><g id="link_LogoutCommand_MyContext"><path codeLine="9" d="M4246.65,473.7 C4223.86,484.1 4199.45,493.64 4175.71,500 C3837.74,590.61 3735.29,499.17 3390.71,560 C3356.87,565.97 3320.6,575.15 3288.02,584.46 " fill="none" id="LogoutCommand-to-MyContext" style="stroke:#181818;stroke-width:1.0;"/><polygon fill="#181818" points="3282.82,585.95,3292.5763,587.2968,3287.6238,584.5632,3290.3574,579.6107,3282.82,585.95" style="stroke:#181818;stroke-width:1.0;"/></g><g id="link_BaseCommand_WhoamiCommand"><path codeLine="7" d="M3890.91,212.74 C4048.38,227.63 4311.12,260.83 4527.71,329 C4550.02,336.02 4573.09,345.4 4594.89,355.35 " fill="none" id="BaseCommand-backto-WhoamiCommand" style="stroke:#181818;stroke-width:1.0;"/><polygon fill="none" points="3890.09,219.69,3870.82,210.88,3891.38,205.75,3890.09,219.69" style="stroke:#181818;stroke-width:1.0;"/></g><g id="link_WhoamiCommand_Argument"><path codeLine="8" d="M4597.01,473.54 C4574.64,483.76 4550.81,493.26 4527.71,500 C4242.7,583.18 3894.36,607.8 3700.37,615.04 " fill="none" id="WhoamiCommand-to-Argument" style="stroke:#181818;stroke-width:1.0;"/><polygon fill="#181818" points="3695.24,615.23,3704.3721,618.9184,3700.237,615.0582,3704.0972,610.9231,3695.24,615.23" style="stroke:#181818;stroke-width:1.0;"/></g><g id="link_WhoamiCommand_MyContext"><path codeLine="9" d="M4599.71,473.7 C4576.63,484.24 4551.85,493.83 4527.71,500 C4037.43,625.28 3890.05,477.9 3390.71,560 C3356.14,565.68 3319.08,575 3286.02,584.52 " fill="none" id="WhoamiCommand-to-MyContext" style="stroke:#181818;stroke-width:1.0;"/><polygon fill="#181818" points="3281.17,585.92,3290.93,587.24,3285.97,584.52,3288.69,579.56,3281.17,585.92" style="stroke:#181818;stroke-width:1.0;"/></g><g id="link_BaseCommand_AddGroupCommand"><path codeLine="7" d="M3891.18,206.96 C4106.08,217 4529.96,246.33 4879.71,329 C4908.8,335.87 4939.24,345.34 4968.1,355.45 " fill="none" id="BaseCommand-backto-AddGroupCommand" style="stroke:#181818;stroke-width:1.0;"/><polygon fill="none" points="3890.71,213.94,3871.05,206.05,3891.34,199.96,3890.71,213.94" style="stroke:#181818;stroke-width:1.0;"/></g><g id="link_AddGroupCommand_Argument"><path codeLine="8" d="M4969.76,473.55 C4940.44,483.83 4909.39,493.35 4879.71,500 C4459.39,594.15 3948.4,613.77 3700.68,617.47 " fill="none" id="AddGroupCommand-to-Argument" style="stroke:#181818;stroke-width:1.0;"/><polygon fill="#181818" points="3695.6,617.54,3704.6562,621.411,3700.5995,617.4686,3704.5419,613.4118,3695.6,617.54" style="stroke:#181818;stroke-width:1.0;"/></g><g id="link_AddGroupCommand_MyContext"><path codeLine="9" d="M4973.07,473.6 C4942.83,484.21 4910.59,493.86 4879.71,500 C4230.1,629.1 4044.91,456.62 3390.71,560 C3355.75,565.52 3318.29,574.92 3284.97,584.55 " fill="none" id="AddGroupCommand-to-MyContext" style="stroke:#181818;stroke-width:1.0;"/><polygon fill="#181818" points="3280.08,585.97,3289.8353,587.3245,3284.8849,584.587,3287.6224,579.6366,3280.08,585.97" style="stroke:#181818;stroke-width:1.0;"/></g><g id="link_BaseCommand_DeleteGroupCommand"><path codeLine="7" d="M3891.13,208.48 C4225.19,224.76 5064.03,270.31 5338.71,329 C5369.48,335.57 5401.69,345.1 5432.13,355.41 " fill="none" id="BaseCommand-backto-DeleteGroupCommand" style="stroke:#181818;stroke-width:1.0;"/><polygon fill="none" points="3890.45,215.46,3870.82,207.5,3891.13,201.47,3890.45,215.46" style="stroke:#181818;stroke-width:1.0;"/></g><g id="link_DeleteGroupCommand_Argument"><path codeLine="8" d="M5433.15,473.6 C5402.43,484.01 5369.85,493.57 5338.71,500 C5027.01,564.34 4070.93,601.24 3700.51,613.44 " fill="none" id="DeleteGroupCommand-to-Argument" style="stroke:#181818;stroke-width:1.0;"/><polygon fill="#181818" points="3695.36,613.61,3704.4918,617.2993,3700.3571,613.4387,3704.2177,609.304,3695.36,613.61" style="stroke:#181818;stroke-width:1.0;"/></g><g id="link_DeleteGroupCommand_MyContext"><path codeLine="9" d="M5435.86,473.59 C5404.39,484.28 5370.82,493.96 5338.71,500 C4487.46,660.16 4246.92,428.85 3390.71,560 C3355.55,565.39 3317.88,574.8 3284.44,584.5 " fill="none" id="DeleteGroupCommand-to-MyContext" style="stroke:#181818;stroke-width:1.0;"/><polygon fill="#181818" points="3279.53,585.93,3289.29,587.25,3284.33,584.53,3287.05,579.57,3279.53,585.93" style="stroke:#181818;stroke-width:1.0;"/></g><g id="link_BaseCommand_GetAllGroupsCommand"><path codeLine="7" d="M3891.21,205.56 C4292.46,216.61 5444.45,254.14 5813.71,329 C5845.21,335.39 5878.19,344.97 5909.26,355.41 " fill="none" id="BaseCommand-backto-GetAllGroupsCommand" style="stroke:#181818;stroke-width:1.0;"/><polygon fill="none" points="3890.77,212.56,3870.97,205.01,3891.15,198.56,3890.77,212.56" style="stroke:#181818;stroke-width:1.0;"/></g><g id="link_GetAllGroupsCommand_Argument"><path codeLine="8" d="M5909.94,473.6 C5878.68,484.12 5845.45,493.72 5813.71,500 C5407.12,580.44 4136.41,608.42 3700.34,615.79 " fill="none" id="GetAllGroupsCommand-to-Argument" style="stroke:#181818;stroke-width:1.0;"/><polygon fill="#181818" points="3695.25,615.87,3704.3172,619.7151,3700.2493,615.7843,3704.1801,611.7163,3695.25,615.87" style="stroke:#181818;stroke-width:1.0;"/></g><g id="link_GetAllGroupsCommand_MyContext"><path codeLine="9" d="M5912.31,473.52 C5880.39,484.28 5846.3,494.02 5813.71,500 C5283.96,597.3 3923.36,480.06 3390.71,560 C3355.36,565.31 3317.48,574.76 3283.92,584.52 " fill="none" id="GetAllGroupsCommand-to-MyContext" style="stroke:#181818;stroke-width:1.0;"/><polygon fill="#181818" points="3279,585.96,3288.7636,587.2532,3283.7961,584.5469,3286.5025,579.5794,3279,585.96" style="stroke:#181818;stroke-width:1.0;"/></g><g id="link_BaseCommand_GetGroupCommand"><path codeLine="7" d="M3612.23,201.64 C3072.58,201.16 1121.65,208.02 515.71,329 C484.98,335.14 452.89,344.82 422.82,355.48 " fill="none" id="BaseCommand-backto-GetGroupCommand" style="stroke:#181818;stroke-width:1.0;"/><polygon fill="none" points="3612.35,194.64,3632.34,201.66,3612.34,208.64,3612.35,194.64" style="stroke:#181818;stroke-width:1.0;"/></g><g id="link_GetGroupCommand_Argument"><path codeLine="8" d="M421.52,473.51 C451.95,484.31 484.51,494.06 515.71,500 C1131.9,617.29 2716.86,470.63 3337.71,560 C3359.05,563.07 3381.3,567.58 3403.04,572.74 " fill="none" id="GetGroupCommand-to-Argument" style="stroke:#181818;stroke-width:1.0;"/><polygon fill="#181818" points="3407.96,573.92,3400.1447,567.9266,3403.0986,572.751,3398.2742,575.7049,3407.96,573.92" style="stroke:#181818;stroke-width:1.0;"/></g><g id="link_GetGroupCommand_MyContext"><path codeLine="9" d="M423.15,473.51 C453.13,484.13 485.09,493.81 515.71,500 C1005.42,599.04 2561.54,614.96 3041.42,617.51 " fill="none" id="GetGroupCommand-to-MyContext" style="stroke:#181818;stroke-width:1.0;"/><polygon fill="#181818" points="3046.66,617.54,3037.6715,613.5143,3041.66,617.5257,3037.6486,621.5143,3046.66,617.54" style="stroke:#181818;stroke-width:1.0;"/></g><g id="link_BaseCommand_UpdateGroupCommand"><path codeLine="7" d="M3612.4,203.05 C3125.97,207.56 1504.98,229.85 995.71,329 C963.73,335.23 930.26,344.88 898.81,355.46 " fill="none" id="BaseCommand-backto-UpdateGroupCommand" style="stroke:#181818;stroke-width:1.0;"/><polygon fill="none" points="3612.59,196.05,3632.65,202.87,3612.72,210.05,3612.59,196.05" style="stroke:#181818;stroke-width:1.0;"/></g><g id="link_UpdateGroupCommand_Argument"><path codeLine="8" d="M897.44,473.6 C929.27,484.33 963.24,494.02 995.71,500 C1507.72,594.27 2822.57,484.7 3337.71,560 C3359.05,563.12 3381.29,567.65 3403.02,572.82 " fill="none" id="UpdateGroupCommand-to-Argument" style="stroke:#181818;stroke-width:1.0;"/><polygon fill="#181818" points="3407.95,574.01,3400.1387,568.0114,3403.0894,572.8377,3398.263,575.7884,3407.95,574.01" style="stroke:#181818;stroke-width:1.0;"/></g><g id="link_UpdateGroupCommand_MyContext"><path codeLine="9" d="M899.49,473.56 C930.75,484.08 963.98,493.69 995.71,500 C1389.46,578.26 2621.16,607.68 3041.49,615.6 " fill="none" id="UpdateGroupCommand-to-MyContext" style="stroke:#181818;stroke-width:1.0;"/><polygon fill="#181818" points="3046.71,615.7,3037.7799,611.5463,3041.7107,615.6143,3037.6428,619.5451,3046.71,615.7" style="stroke:#181818;stroke-width:1.0;"/></g><g id="link_BaseCommand_AddStudentCommand"><path codeLine="7" d="M3612.29,204.44 C3181.86,212.79 1878.04,244.58 1463.71,329 C1432.71,335.32 1400.29,344.94 1369.81,355.45 " fill="none" id="BaseCommand-backto-AddStudentCommand" style="stroke:#181818;stroke-width:1.0;"/><polygon fill="none" points="3612.3,197.44,3632.43,204.05,3612.56,211.43,3612.3,197.44" style="stroke:#181818;stroke-width:1.0;"/></g><g id="link_AddStudentCommand_Argument"><path codeLine="8" d="M1368.14,473.57 C1399.08,484.26 1432.11,493.95 1463.71,500 C2282.15,656.78 2513.55,436.84 3337.71,560 C3359.04,563.19 3381.28,567.76 3403.01,572.95 " fill="none" id="AddStudentCommand-to-Argument" style="stroke:#181818;stroke-width:1.0;"/><polygon fill="#181818" points="3407.93,574.14,3400.1147,568.1466,3403.0686,572.971,3398.2442,575.9249,3407.93,574.14" style="stroke:#181818;stroke-width:1.0;"/></g><g id="link_AddStudentCommand_MyContext"><path codeLine="9" d="M1370.81,473.56 C1401.02,483.97 1433.07,493.55 1463.71,500 C1763.83,563.19 2685.67,600.83 3041.51,613.33 " fill="none" id="AddStudentCommand-to-MyContext" style="stroke:#181818;stroke-width:1.0;"/><polygon fill="#181818" points="3046.71,613.51,3037.8523,609.204,3041.7129,613.3387,3037.5782,617.1993,3046.71,613.51" style="stroke:#181818;stroke-width:1.0;"/></g><g id="link_BaseCommand_DeleteStudentCommand"><path codeLine="7" d="M3612.55,207.02 C3246.95,220.96 2265.65,263.52 1947.71,329 C1916.22,335.49 1883.23,345.04 1852.09,355.42 " fill="none" id="BaseCommand-backto-DeleteStudentCommand" style="stroke:#181818;stroke-width:1.0;"/><polygon fill="none" points="3612.36,200.02,3632.61,206.26,3612.89,214.01,3612.36,200.02" style="stroke:#181818;stroke-width:1.0;"/></g><g id="link_DeleteStudentCommand_Argument"><path codeLine="8" d="M1850.02,473.6 C1881.74,484.18 1915.48,493.82 1947.71,500 C2554.99,616.5 2726.67,465.21 3337.71,560 C3359.11,563.32 3381.43,567.98 3403.24,573.23 " fill="none" id="DeleteStudentCommand-to-Argument" style="stroke:#181818;stroke-width:1.0;"/><polygon fill="#181818" points="3408.18,574.43,3400.3854,568.4097,3403.3226,573.2442,3398.4881,576.1815,3408.18,574.43" style="stroke:#181818;stroke-width:1.0;"/></g><g id="link_DeleteStudentCommand_MyContext"><path codeLine="9" d="M1853.84,473.52 C1884.49,483.73 1916.85,493.24 1947.71,500 C2337.29,585.3 2809.32,608.94 3041.16,615.49 " fill="none" id="DeleteStudentCommand-to-MyContext" style="stroke:#181818;stroke-width:1.0;"/><polygon fill="#181818" points="3046.25,615.63,3037.3558,611.4,3041.2517,615.5015,3037.1502,619.3973,3046.25,615.63" style="stroke:#181818;stroke-width:1.0;"/></g><g id="link_BaseCommand_GetStudentCommand"><path codeLine="7" d="M3612.44,203.67 C3367.2,209.16 2843.55,232.31 2413.71,329 C2383.91,335.71 2352.71,345.19 2323.19,355.4 " fill="none" id="BaseCommand-backto-GetStudentCommand" style="stroke:#181818;stroke-width:1.0;"/><polygon fill="none" points="3612.31,196.67,3632.45,203.25,3612.61,210.67,3612.31,196.67" style="stroke:#181818;stroke-width:1.0;"/></g><g id="link_GetStudentCommand_Argument"><path codeLine="8" d="M2320.86,473.55 C2351.03,483.99 2383.07,493.59 2413.71,500 C2816.51,584.33 2931.75,492.5 3337.71,560 C3359.07,563.55 3381.37,568.34 3403.18,573.66 " fill="none" id="GetStudentCommand-to-Argument" style="stroke:#181818;stroke-width:1.0;"/><polygon fill="#181818" points="3408.11,574.87,3400.3362,568.8228,3403.2568,573.6674,3398.4121,576.588,3408.11,574.87" style="stroke:#181818;stroke-width:1.0;"/></g><g id="link_GetStudentCommand_MyContext"><path codeLine="9" d="M2327.26,473.57 C2355.63,483.41 2385.36,492.76 2413.71,500 C2629.22,555.03 2885.63,588.05 3041.44,604.63 " fill="none" id="GetStudentCommand-to-MyContext" style="stroke:#181818;stroke-width:1.0;"/><polygon fill="#181818" points="3046.48,605.17,3037.9533,600.2409,3041.508,604.6414,3037.1075,608.196,3046.48,605.17" style="stroke:#181818;stroke-width:1.0;"/></g><g id="link_BaseCommand_GetStudentsCommand"><path codeLine="7" d="M3612.45,213.97 C3440.32,230.7 3139.3,266.31 2887.71,329 C2858.78,336.21 2828.43,345.58 2799.48,355.45 " fill="none" id="BaseCommand-backto-GetStudentsCommand" style="stroke:#181818;stroke-width:1.0;"/><polygon fill="none" points="3611.96,206.98,3632.54,212.05,3613.3,220.92,3611.96,206.98" style="stroke:#181818;stroke-width:1.0;"/></g><g id="link_GetStudentsCommand_Argument"><path codeLine="8" d="M2798.45,473.54 C2827.7,483.5 2858.42,492.91 2887.71,500 C3083.82,547.48 3139.91,520.19 3337.71,560 C3359.03,564.29 3381.35,569.51 3403.2,575.04 " fill="none" id="GetStudentsCommand-to-Argument" style="stroke:#181818;stroke-width:1.0;"/><polygon fill="#181818" points="3408.15,576.3,3400.4099,570.2097,3403.3035,575.0705,3398.4427,577.9641,3408.15,576.3" style="stroke:#181818;stroke-width:1.0;"/></g><g id="link_GetStudentsCommand_MyContext"><path codeLine="9" d="M2803.45,473.53 C2897.7,509.34 3015.33,554.03 3094.6,584.14 " fill="none" id="GetStudentsCommand-to-MyContext" style="stroke:#181818;stroke-width:1.0;"/><polygon fill="#181818" points="3099.29,585.93,3092.3045,578.9872,3094.6178,584.1494,3089.4556,586.4627,3099.29,585.93" style="stroke:#181818;stroke-width:1.0;"/></g><g id="link_BaseCommand_UpdateStudentCommand"><path codeLine="7" d="M3613.56,248.38 C3542.45,272.33 3454.39,302.09 3375.71,329 C3350.79,337.52 3324.46,346.59 3298.68,355.49 " fill="none" id="BaseCommand-backto-UpdateStudentCommand" style="stroke:#181818;stroke-width:1.0;"/><polygon fill="none" points="3611.48,241.69,3632.67,241.95,3615.95,254.96,3611.48,241.69" style="stroke:#181818;stroke-width:1.0;"/></g><g id="link_UpdateStudentCommand_Argument"><path codeLine="8" d="M3252.07,473.53 C3306.77,499.9 3371.46,531.09 3426.7,557.73 " fill="none" id="UpdateStudentCommand-to-Argument" style="stroke:#181818;stroke-width:1.0;"/><polygon fill="#181818" points="3431.34,559.96,3424.9727,552.4462,3426.8369,557.7871,3421.496,559.6512,3431.34,559.96" style="stroke:#181818;stroke-width:1.0;"/></g><g id="link_UpdateStudentCommand_MyContext"><path codeLine="9" d="M3146.61,473.53 C3155.47,508 3166.43,550.7 3174.14,580.7 " fill="none" id="UpdateStudentCommand-to-MyContext" style="stroke:#181818;stroke-width:1.0;"/><polygon fill="#181818" points="3175.44,585.78,3177.0772,576.0682,3174.1971,580.9369,3169.3283,578.0568,3175.44,585.78" style="stroke:#181818;stroke-width:1.0;"/></g></g></svg>